if (_typeface_js && _typeface_js.loadFace) _typeface_js.loadFace({"glyphs":{"0":{"ha":753,"x_min":0,"x_max":0,"o":"m 376 864 b 89 424 174 864 89 594 b 376 -18 89 253 174 -18 b 664 424 579 -18 664 253 b 376 864 664 594 579 864 z m 376 21 b 128 424 199 21 128 274 b 376 825 128 571 197 825 b 625 424 556 825 625 571 b 376 21 625 274 553 21 z "},"1":{"ha":588,"x_min":0,"x_max":0,"o":"m 329 40 l 329 819 b 310 839 329 832 322 839 b 190 761 294 839 207 774 b 182 746 185 758 182 753 b 201 726 182 733 189 726 b 290 783 215 726 276 774 l 290 40 l 235 40 b 215 21 222 40 215 33 b 235 1 215 11 224 1 l 386 1 b 406 21 397 1 406 11 b 386 40 406 33 399 40 z "},"2":{"ha":653,"x_min":0,"x_max":0,"o":"m 326 856 b 89 614 193 856 89 746 b 108 594 89 601 96 594 b 128 614 121 594 128 601 b 326 817 128 725 215 817 b 524 611 442 817 524 722 b 92 18 524 310 92 349 l 97 4 l 104 0 b 111 -1 106 0 110 -1 l 535 -1 b 554 18 546 -1 554 8 b 535 38 554 31 547 38 l 132 38 b 564 614 149 319 564 286 b 326 856 564 746 458 856 z "},"3":{"ha":685,"x_min":0,"x_max":0,"o":"m 439 451 b 575 646 518 485 575 557 b 343 860 575 771 461 860 b 110 646 222 860 110 771 b 129 626 110 633 117 626 b 149 646 142 626 149 633 b 343 821 149 751 244 821 b 536 646 439 821 536 751 b 343 471 536 540 439 471 b 324 451 331 471 324 464 b 342 432 324 439 329 432 b 557 225 457 432 557 342 b 342 18 557 108 457 18 b 128 225 226 18 128 108 b 108 244 128 238 121 244 b 89 225 96 244 89 238 b 342 -21 89 86 204 -21 b 596 225 481 -21 596 86 b 439 451 596 326 533 414 z "},"4":{"ha":667,"x_min":0,"x_max":0,"o":"m 478 460 l 478 835 b 458 854 478 846 468 854 b 439 835 446 854 439 847 l 439 460 l 132 460 l 196 835 b 176 854 196 846 189 854 b 157 838 165 854 158 849 l 89 440 b 108 421 89 431 97 421 l 439 421 l 439 15 b 458 -4 439 3 446 -4 b 478 15 468 -4 478 4 l 478 421 l 558 421 b 578 440 569 421 578 431 b 558 460 578 453 571 460 z "},"5":{"ha":660,"x_min":0,"x_max":0,"o":"m 331 582 b 151 514 268 582 200 553 l 183 793 l 531 793 b 550 813 540 793 550 801 b 531 832 550 824 540 832 l 167 832 b 147 815 156 832 149 826 l 108 478 b 126 457 108 465 114 457 b 135 458 129 457 132 457 b 143 457 138 457 140 457 b 156 463 147 457 151 458 b 331 543 204 508 264 543 b 532 283 463 543 532 399 b 331 24 532 168 463 24 b 128 251 204 24 128 133 b 129 281 128 261 129 271 b 113 303 129 290 124 303 b 89 265 90 303 89 283 b 331 -15 89 121 175 -15 b 571 283 485 -15 571 144 b 331 582 571 419 485 582 z "},"6":{"ha":688,"x_min":0,"x_max":0,"o":"m 344 526 b 139 414 261 526 188 482 b 386 796 164 560 254 721 b 454 838 410 810 454 818 b 435 857 454 849 444 857 l 429 857 b 88 254 186 782 88 481 b 344 -14 88 113 201 -14 b 599 256 493 -14 599 115 b 344 526 599 397 493 526 z m 344 25 b 129 256 218 25 129 138 b 344 488 129 376 218 488 b 560 256 471 488 560 376 b 344 25 560 138 471 25 z "},"7":{"ha":653,"x_min":0,"x_max":0,"o":"m 107 832 b 89 813 97 832 89 822 b 108 793 89 803 97 793 l 515 793 b 221 11 493 735 221 21 b 240 -8 221 -1 228 -8 b 258 4 250 -8 256 -4 b 564 813 281 64 564 804 b 544 832 564 822 556 832 z "},"8":{"ha":685,"x_min":0,"x_max":0,"o":"m 439 457 b 575 650 518 489 575 563 b 343 864 575 775 461 864 b 110 650 222 864 110 775 b 246 457 110 563 167 489 b 89 229 151 419 89 331 b 342 -17 89 90 204 -17 b 596 229 481 -17 596 90 b 439 457 596 331 533 419 z m 149 650 b 343 825 149 756 244 825 b 536 650 439 825 536 756 b 343 475 536 544 439 475 b 149 650 244 475 149 544 z m 342 22 b 128 229 226 22 128 113 b 342 436 128 346 226 436 b 557 229 457 436 557 346 b 342 22 557 113 457 22 z "},"9":{"ha":685,"x_min":0,"x_max":0,"o":"m 342 857 b 89 611 204 857 89 750 b 342 365 89 472 204 365 b 538 454 418 365 489 397 b 335 92 504 315 431 194 b 251 6 313 68 251 26 b 271 -14 251 -7 258 -14 b 363 63 293 -14 342 40 b 596 596 494 201 596 401 b 342 857 596 742 490 857 z m 342 404 b 128 611 226 404 128 494 b 342 817 128 728 226 817 b 557 611 457 817 557 728 b 342 404 557 494 457 404 z "}," ":{"ha":299,"x_min":0,"x_max":0,"o":""},"!":{"ha":256,"x_min":0,"x_max":0,"o":"m 128 163 b 147 183 138 163 147 172 l 147 831 b 128 850 147 840 138 850 b 108 831 117 850 108 840 l 108 183 b 128 163 108 172 117 163 z m 128 57 b 96 26 110 57 96 43 b 128 -6 96 8 110 -6 b 160 26 144 -6 160 8 b 128 57 160 43 144 57 z "},"\"":{"ha":328,"x_min":0,"x_max":0,"o":"m 213 847 b 193 828 200 847 193 840 l 193 603 b 213 583 193 590 200 583 b 232 603 225 583 232 590 l 232 828 b 213 847 232 840 225 847 z m 115 847 b 96 828 103 847 96 840 l 96 603 b 115 583 96 590 103 583 b 135 603 128 583 135 590 l 135 828 b 115 847 135 840 128 847 z "},"#":{"ha":636,"x_min":0,"x_max":0,"o":"m 210 524 l 381 524 b 357 418 376 506 357 429 b 376 399 357 406 364 399 b 394 414 386 399 393 404 l 421 524 l 521 524 b 540 543 533 524 540 531 b 521 563 540 553 532 563 l 429 563 l 457 682 l 521 682 b 540 700 533 682 540 688 b 521 719 540 713 533 719 l 467 719 b 490 825 471 736 490 814 b 471 844 490 838 483 844 b 453 831 461 844 454 840 l 426 719 l 256 719 b 279 825 260 735 279 815 b 260 844 279 838 272 844 b 242 831 250 844 243 840 l 215 719 l 115 719 b 96 700 103 719 96 713 b 115 682 96 688 103 682 l 207 682 l 179 563 l 115 563 b 96 543 104 563 96 553 b 115 524 96 531 103 524 l 169 524 b 146 418 165 506 146 429 b 165 399 146 406 153 399 b 183 414 175 399 182 404 z m 246 682 l 418 682 l 390 563 l 218 563 z "},"$":{"ha":676,"x_min":0,"x_max":0,"o":"m 115 244 b 96 225 106 244 96 236 b 311 -21 96 92 178 -4 l 311 -165 b 331 -185 311 -175 321 -185 b 350 -165 342 -185 350 -175 l 350 -22 b 581 201 482 -22 581 65 b 350 454 581 338 465 414 l 350 811 b 499 678 428 800 478 754 b 525 608 506 650 497 608 b 544 626 535 608 544 615 b 350 850 544 744 467 835 b 350 872 350 856 350 864 b 331 907 350 889 347 907 b 310 874 313 907 310 890 b 311 853 310 865 311 858 b 96 644 196 849 96 764 b 311 426 96 515 204 460 l 311 18 b 135 215 204 32 135 115 b 115 244 135 228 132 244 z m 311 467 b 135 644 225 497 135 538 b 311 814 135 742 218 810 z m 350 413 b 542 203 444 379 542 314 b 350 17 542 86 461 18 z "},"%":{"ha":1015,"x_min":0,"x_max":0,"o":"m 278 376 b 458 617 397 376 458 513 b 278 857 458 721 397 857 b 96 617 156 857 96 721 b 278 376 96 513 156 376 z m 278 818 b 419 617 375 818 419 699 b 278 415 419 535 375 415 b 135 617 179 415 135 535 b 278 818 135 699 179 818 z m 557 200 b 738 -40 557 96 618 -40 b 919 200 860 -40 919 96 b 738 439 919 303 860 439 b 557 200 618 439 557 303 z m 738 401 b 881 200 833 401 881 281 b 738 -1 881 118 833 -1 b 594 200 640 -1 594 118 b 738 401 594 281 640 401 z m 318 -17 b 336 -6 328 -17 333 -12 b 724 815 365 60 724 801 b 706 835 724 828 718 835 b 688 824 696 835 690 831 b 299 3 658 758 299 17 b 318 -17 299 -8 308 -17 z "},"&":{"ha":1013,"x_min":0,"x_max":0,"o":"m 392 -92 b 781 69 536 -92 689 -44 b 935 -26 800 57 922 -26 b 953 -7 944 -26 953 -17 b 804 100 953 21 843 74 b 874 326 849 167 874 244 b 842 444 874 344 871 444 b 822 425 831 444 822 435 b 836 326 822 390 836 361 b 771 122 836 254 814 182 b 376 443 632 217 489 317 b 596 704 465 503 596 583 b 426 864 596 804 525 864 b 217 678 321 864 217 792 b 319 451 217 594 269 514 b 67 147 218 383 67 283 b 392 -92 67 -36 253 -92 z m 256 679 b 426 825 256 768 342 825 b 557 704 503 825 557 783 b 350 474 557 604 426 521 b 256 679 306 529 256 606 z m 344 422 b 749 90 461 293 604 189 b 390 -53 664 -14 519 -53 b 106 144 267 -53 106 -6 b 344 422 106 267 256 363 z "},"'":{"ha":231,"x_min":0,"x_max":0,"o":"m 115 847 b 96 828 103 847 96 840 l 96 603 b 115 583 96 590 103 583 b 135 603 128 583 135 590 l 135 828 b 115 847 135 840 128 847 z "},"(":{"ha":428,"x_min":0,"x_max":0,"o":"m 313 -287 b 332 -268 322 -287 332 -279 b 313 -250 332 -258 322 -250 b 150 56 213 -250 161 -14 b 135 267 139 126 135 196 b 150 478 135 338 139 407 b 313 783 161 547 213 783 b 332 803 322 783 332 792 b 313 822 332 813 322 822 b 114 492 188 822 129 583 b 96 267 101 415 96 343 b 114 43 96 190 101 117 b 313 -287 131 -50 185 -287 z "},")":{"ha":428,"x_min":0,"x_max":0,"o":"m 115 -287 b 314 43 242 -287 297 -50 b 332 267 326 117 332 190 b 314 492 332 343 326 415 b 115 822 299 583 240 822 b 96 803 104 822 96 813 b 115 783 96 790 103 783 b 278 478 214 783 267 549 b 293 267 289 407 293 338 b 278 56 293 196 289 126 b 115 -250 267 -15 214 -250 b 96 -268 103 -250 96 -256 b 115 -287 96 -281 103 -287 z "},"*":{"ha":572,"x_min":0,"x_max":0,"o":"m 115 472 b 268 572 129 472 247 558 l 268 413 b 288 393 268 400 275 393 b 307 413 300 393 307 400 l 307 579 b 457 481 329 564 440 481 b 476 500 469 481 476 488 b 468 517 476 507 474 513 l 326 611 l 468 707 b 476 724 474 711 476 717 b 457 743 476 736 469 743 b 307 644 440 743 329 660 l 307 811 b 288 831 307 824 300 831 b 268 811 275 831 268 824 l 268 651 b 115 751 247 665 129 751 b 96 732 103 751 96 744 b 104 715 96 725 99 719 l 258 611 l 104 508 b 96 492 99 504 96 499 b 115 472 96 479 103 472 z "},"+":{"ha":617,"x_min":0,"x_max":0,"o":"m 289 426 l 289 253 b 308 233 289 243 297 233 b 328 253 319 233 328 243 l 328 426 l 501 426 b 521 446 513 426 521 436 b 501 465 521 458 514 465 l 328 465 l 328 639 b 308 658 328 651 321 658 b 289 639 296 658 289 651 l 289 465 l 115 465 b 96 446 103 465 96 458 b 115 426 96 436 104 426 z "},",":{"ha":269,"x_min":0,"x_max":0,"o":"m 174 28 b 142 60 172 44 158 60 b 110 28 125 60 110 44 b 132 -3 110 13 117 1 b 96 -94 125 -24 115 -56 b 115 -114 96 -107 103 -114 b 174 19 147 -114 174 -10 z "},"-":{"ha":504,"x_min":0,"x_max":0,"o":"m 390 431 b 408 450 400 431 408 440 b 390 469 408 463 403 469 l 115 469 b 96 450 103 469 96 463 b 115 431 96 440 104 431 z "},".":{"ha":256,"x_min":0,"x_max":0,"o":"m 128 57 b 96 26 110 57 96 43 b 128 -6 96 8 110 -6 b 160 26 144 -6 160 8 b 128 57 160 43 144 57 z "},"/":{"ha":475,"x_min":0,"x_max":0,"o":"m 115 -17 b 133 -3 125 -17 132 -12 b 379 819 156 56 379 810 b 360 839 379 832 372 839 b 342 825 350 839 343 835 b 96 3 319 765 96 11 b 115 -17 96 -10 103 -17 z "},":":{"ha":256,"x_min":0,"x_max":0,"o":"m 128 57 b 96 25 110 57 96 43 b 128 -7 96 8 110 -7 b 160 25 144 -7 160 8 b 128 57 160 43 144 57 z m 128 390 b 160 422 144 390 160 404 b 128 453 160 439 144 453 b 96 422 110 453 96 439 b 128 390 96 404 110 390 z "},";":{"ha":269,"x_min":0,"x_max":0,"o":"m 142 390 b 174 422 158 390 174 404 b 142 453 174 439 158 453 b 110 422 125 453 110 439 b 142 390 110 404 125 390 z m 174 28 b 142 60 172 44 158 60 b 110 28 125 60 110 44 b 132 -3 110 13 117 1 b 96 -94 125 -24 115 -56 b 115 -114 96 -107 103 -114 b 174 19 147 -114 174 -10 z "},"<":{"ha":535,"x_min":0,"x_max":0,"o":"m 419 224 b 439 243 432 224 439 231 b 431 258 439 250 436 256 l 144 450 l 431 640 b 439 657 436 644 439 650 b 419 676 439 667 431 676 b 408 672 415 676 413 675 l 104 469 b 96 446 96 464 96 457 b 104 431 96 440 96 435 l 408 226 b 419 224 411 225 415 224 z "},"=":{"ha":617,"x_min":0,"x_max":0,"o":"m 501 508 b 521 528 514 508 521 515 b 501 547 521 538 513 547 l 115 547 b 96 528 104 547 96 538 b 115 508 96 515 103 508 z m 501 363 b 521 382 513 363 521 372 b 501 401 521 394 514 401 l 115 401 b 96 382 103 401 96 394 b 115 363 96 372 104 363 z "},">":{"ha":535,"x_min":0,"x_max":0,"o":"m 115 224 b 126 226 119 224 124 225 l 431 431 b 439 453 440 436 439 443 b 431 469 439 460 436 465 l 126 672 b 115 676 122 675 118 676 b 96 657 104 676 96 667 b 104 640 96 650 99 644 l 390 450 l 104 258 b 96 243 99 256 96 250 b 115 224 96 231 103 224 z "},"?":{"ha":669,"x_min":0,"x_max":0,"o":"m 96 624 b 117 606 96 613 106 606 b 135 629 132 606 135 618 b 338 818 135 746 224 818 b 535 635 446 818 535 747 b 386 429 535 528 461 488 b 275 200 300 363 275 303 l 275 190 b 296 163 275 178 278 163 b 314 200 317 163 314 185 b 410 399 314 293 335 339 b 574 636 496 467 574 514 b 339 857 574 769 467 857 b 96 624 197 857 96 764 z m 293 57 b 261 25 276 57 261 43 b 293 -7 261 8 276 -7 b 325 25 311 -7 325 8 b 293 57 325 43 311 57 z "},"@":{"ha":1194,"x_min":0,"x_max":0,"o":"m 653 828 b 96 243 324 828 96 535 b 618 -285 96 -53 319 -285 b 974 -128 740 -285 904 -237 b 976 -117 975 -122 976 -118 b 957 -97 976 -104 969 -97 b 942 -106 950 -97 946 -100 b 619 -246 863 -206 749 -246 b 135 242 342 -246 135 -33 b 506 764 135 482 279 682 b 653 789 553 781 601 789 b 1060 382 889 789 1060 615 b 794 -31 1060 214 979 3 l 785 -31 b 765 -7 772 -31 765 -22 b 768 8 765 -1 767 3 l 826 431 b 826 433 826 431 826 432 b 811 453 826 442 819 453 b 789 436 800 453 790 449 l 775 339 b 597 461 746 415 679 461 b 342 189 457 461 342 325 b 535 -18 342 76 418 -18 b 742 100 619 -18 696 32 b 728 -7 736 65 728 28 b 785 -69 728 -44 747 -69 b 928 -11 832 -69 890 -40 b 653 828 1272 247 1076 828 z m 535 21 b 381 189 440 21 381 96 b 597 422 381 304 475 422 b 753 254 692 422 753 347 b 535 21 753 139 656 21 z "},"A":{"ha":669,"x_min":0,"x_max":0,"o":"m 61 -10 b 79 4 71 -10 76 -6 l 185 324 l 485 324 l 589 4 b 608 -10 592 -6 599 -10 b 628 10 618 -10 628 0 b 354 847 628 17 376 789 b 335 860 351 856 344 860 b 315 847 325 860 318 856 b 42 10 293 786 42 18 b 61 -10 42 0 50 -10 z m 335 781 l 472 363 l 197 363 z "},"B":{"ha":640,"x_min":0,"x_max":0,"o":"m 333 -8 b 578 231 467 -8 578 97 b 417 454 578 332 511 421 b 519 640 482 492 519 564 b 326 851 519 747 438 851 l 138 851 b 118 832 126 851 118 842 l 118 14 b 139 -8 118 4 128 -8 z m 539 231 b 333 31 539 118 444 31 l 157 31 l 157 431 l 333 431 b 539 231 444 431 539 343 z m 481 640 b 325 469 481 553 418 469 l 157 469 l 157 813 l 326 813 b 481 640 419 813 481 728 z "},"C":{"ha":668,"x_min":0,"x_max":0,"o":"m 364 -17 b 569 115 453 -17 524 43 b 606 189 578 128 606 178 b 586 208 606 199 596 208 b 568 196 578 208 572 204 b 364 22 526 113 467 22 b 115 424 185 22 115 276 b 364 826 115 572 186 826 b 568 653 467 826 526 736 b 586 640 572 644 578 640 b 606 660 596 640 606 649 b 569 733 606 671 578 721 b 364 865 524 804 453 865 b 76 424 160 865 76 593 b 364 -17 76 253 161 -17 z "},"D":{"ha":685,"x_min":0,"x_max":0,"o":"m 138 -8 b 146 -6 139 -8 142 -7 l 339 -6 b 608 421 553 -6 608 304 b 339 849 608 543 551 849 l 139 849 b 118 828 128 849 118 838 l 118 11 b 138 -8 118 1 126 -8 z m 569 421 b 339 33 569 321 528 33 l 157 33 l 157 810 l 339 810 b 569 421 528 810 569 517 z "},"E":{"ha":594,"x_min":0,"x_max":0,"o":"m 513 -4 b 532 15 524 -4 532 6 b 513 35 532 28 525 35 l 157 35 l 157 435 l 389 435 b 408 454 401 435 408 442 b 389 474 408 464 400 474 l 157 474 l 157 810 l 513 810 b 532 829 525 810 532 817 b 513 849 532 839 524 849 l 138 849 b 118 829 126 849 118 839 l 118 15 b 138 -4 118 6 126 -4 z "},"F":{"ha":594,"x_min":0,"x_max":0,"o":"m 138 -6 b 157 14 149 -6 157 4 l 157 433 l 389 433 b 408 453 401 433 408 440 b 389 472 408 465 401 472 l 157 472 l 157 808 l 513 808 b 532 828 525 808 532 815 b 513 847 532 840 525 847 l 138 847 b 118 828 125 847 118 840 l 118 14 b 138 -6 118 4 126 -6 z "},"G":{"ha":735,"x_min":0,"x_max":0,"o":"m 364 -15 b 651 426 567 -15 651 256 b 632 446 651 436 642 446 l 432 446 b 413 426 421 446 413 436 b 432 407 413 414 419 407 l 611 407 b 364 24 608 308 557 24 b 115 426 185 24 115 276 b 364 828 115 574 185 828 b 568 654 471 828 525 735 b 586 642 572 646 578 642 b 606 661 596 642 606 651 b 569 735 606 672 578 722 b 364 867 524 806 453 867 b 76 426 161 867 76 597 b 364 -15 76 256 161 -15 z "},"H":{"ha":679,"x_min":0,"x_max":0,"o":"m 138 -7 b 157 13 149 -7 157 3 l 157 429 l 522 429 l 522 13 b 542 -7 522 3 531 -7 b 561 13 553 -7 561 3 l 561 832 b 542 851 561 844 554 851 b 522 832 529 851 522 844 l 522 468 l 157 468 l 157 832 b 138 851 157 844 150 851 b 118 832 125 851 118 844 l 118 13 b 138 -7 118 3 126 -7 z "},"I":{"ha":428,"x_min":0,"x_max":0,"o":"m 118 24 b 138 4 118 14 126 4 l 290 4 b 310 24 300 4 310 14 b 290 43 310 35 300 43 l 233 43 l 233 800 l 290 800 b 310 819 300 800 310 808 b 290 839 310 829 300 839 l 138 839 b 118 819 126 839 118 829 b 138 800 118 807 125 800 l 194 800 l 194 43 l 138 43 b 118 24 125 43 118 36 z "},"J":{"ha":646,"x_min":0,"x_max":0,"o":"m 268 -14 b 503 258 440 -14 503 99 b 501 804 503 303 501 796 l 592 804 b 611 824 604 804 611 811 b 592 843 611 836 604 843 l 372 843 b 353 824 360 843 353 836 b 372 804 353 811 360 804 l 465 804 b 464 797 464 803 464 800 l 464 258 b 268 25 464 118 418 25 b 74 210 165 25 74 104 b 54 229 74 219 65 229 b 35 210 43 229 35 219 b 268 -14 35 82 144 -14 z "},"K":{"ha":656,"x_min":0,"x_max":0,"o":"m 138 -6 b 157 14 150 -6 157 1 l 157 378 l 269 494 l 578 1 b 594 -8 581 -6 586 -8 b 614 11 604 -8 614 1 b 297 524 614 26 326 478 l 582 819 b 588 833 586 824 588 828 b 568 853 588 843 579 853 b 554 846 561 853 557 850 l 157 435 l 157 833 b 138 853 157 843 149 853 b 118 833 126 853 118 843 l 118 14 b 138 -6 118 1 125 -6 z "},"L":{"ha":574,"x_min":0,"x_max":0,"o":"m 513 0 b 532 19 525 0 532 7 b 513 39 532 29 524 39 l 157 39 l 157 832 b 138 851 157 844 150 851 b 118 832 125 851 118 844 l 118 19 b 138 0 118 7 125 0 z "},"M":{"ha":869,"x_min":0,"x_max":0,"o":"m 138 -8 b 157 11 150 -8 157 -1 l 157 722 l 418 13 b 436 -1 421 3 426 -1 b 456 19 447 -1 456 8 l 713 719 l 713 11 b 732 -8 713 -1 719 -8 b 751 11 742 -8 751 0 l 751 826 b 732 846 751 838 742 846 b 713 833 722 846 715 842 l 435 78 l 160 828 b 138 846 156 838 147 846 b 118 826 125 846 118 839 l 118 11 b 138 -8 118 -1 125 -8 z "},"N":{"ha":681,"x_min":0,"x_max":0,"o":"m 563 833 b 543 853 563 846 556 853 b 524 833 531 853 524 846 l 524 97 l 156 839 b 138 850 151 846 144 850 b 118 831 126 850 118 840 l 118 11 b 138 -8 118 -1 125 -8 b 157 11 150 -8 157 -1 l 157 747 l 526 6 b 543 -6 529 -1 535 -6 b 563 14 554 -6 563 4 z "},"O":{"ha":728,"x_min":0,"x_max":0,"o":"m 364 864 b 76 424 161 864 76 594 b 364 -18 76 253 161 -18 b 651 424 567 -18 651 253 b 364 864 651 594 567 864 z m 364 21 b 115 424 186 21 115 274 b 364 825 115 571 185 825 b 613 424 543 825 613 571 b 364 21 613 274 540 21 z "},"P":{"ha":621,"x_min":0,"x_max":0,"o":"m 139 849 b 119 829 126 849 119 842 l 119 11 b 139 -8 119 1 128 -8 b 158 11 150 -8 158 1 l 158 371 l 318 371 b 558 610 451 371 558 478 b 318 849 558 742 451 849 z m 158 410 l 158 810 l 318 810 b 519 610 429 810 519 719 b 318 410 519 497 429 410 z "},"Q":{"ha":728,"x_min":0,"x_max":0,"o":"m 364 863 b 76 422 161 863 76 593 b 364 -19 76 251 161 -19 b 539 72 435 -19 494 18 l 599 -7 b 614 -15 601 -12 607 -15 b 633 4 626 -15 633 -8 b 564 104 633 18 575 90 b 651 422 625 193 651 315 b 364 863 651 593 567 863 z m 474 225 b 458 233 469 231 464 233 b 439 214 447 233 439 224 b 515 104 439 200 504 119 b 364 19 478 56 426 19 b 115 422 186 19 115 272 b 364 824 115 569 185 824 b 613 422 543 824 613 569 b 539 138 613 324 590 221 z "},"R":{"ha":613,"x_min":0,"x_max":0,"o":"m 382 376 b 558 606 485 401 558 500 b 318 843 558 738 451 843 l 139 843 b 119 824 126 843 119 836 l 119 13 b 139 -7 119 0 126 -7 b 158 13 151 -7 158 0 l 158 368 b 268 367 194 368 231 367 b 342 369 293 367 318 367 l 535 4 b 551 -6 538 -3 543 -6 b 571 14 564 -6 571 1 b 382 376 571 25 399 343 z m 158 407 l 158 804 l 318 804 b 519 606 428 804 519 717 b 318 407 519 494 428 407 z "},"S":{"ha":671,"x_min":0,"x_max":0,"o":"m 124 651 b 307 822 124 751 211 822 b 490 688 404 822 465 776 b 517 614 497 661 489 614 b 538 633 528 614 538 622 b 307 861 538 765 440 861 b 85 651 189 861 85 772 b 310 428 85 513 197 471 b 535 206 422 386 535 343 b 336 18 535 89 450 18 b 126 192 225 18 140 89 l 124 228 b 104 247 122 240 115 247 b 85 228 94 247 85 239 b 338 -21 85 79 189 -21 b 574 206 472 -21 574 67 b 324 465 574 349 444 426 b 124 651 231 496 124 535 z "},"T":{"ha":550,"x_min":0,"x_max":0,"o":"m 61 839 b 42 819 49 839 42 832 b 61 800 42 807 49 800 l 256 800 l 256 17 b 275 -3 256 4 263 -3 b 294 17 288 -3 294 4 l 294 800 l 489 800 b 508 819 501 800 508 807 b 489 839 508 832 501 839 z "},"U":{"ha":746,"x_min":0,"x_max":0,"o":"m 608 854 b 589 835 599 854 589 844 l 589 221 b 374 22 589 89 500 22 b 157 221 251 22 157 90 l 157 835 b 138 854 157 844 149 854 b 118 835 126 854 118 844 l 118 221 b 374 -17 118 69 228 -17 b 628 221 522 -17 628 67 l 628 835 b 608 854 628 844 619 854 z "},"V":{"ha":669,"x_min":0,"x_max":0,"o":"m 608 849 b 589 836 599 849 592 844 l 335 51 l 79 836 b 61 849 78 844 71 849 b 42 829 49 849 42 842 b 315 -15 42 822 293 44 b 335 -28 318 -24 325 -28 b 354 -15 344 -28 351 -24 b 628 829 376 44 628 822 b 608 849 628 840 618 849 z "},"W":{"ha":1072,"x_min":0,"x_max":0,"o":"m 1011 850 b 993 835 1001 850 994 844 l 774 61 l 556 835 b 536 849 553 844 546 849 b 517 835 526 849 519 844 l 299 61 l 81 835 b 61 850 76 844 71 850 b 42 831 50 850 42 840 b 279 -14 42 818 263 50 b 299 -28 282 -24 289 -28 b 318 -14 308 -28 315 -24 l 536 760 l 754 -14 b 774 -28 757 -24 764 -28 b 793 -14 785 -28 792 -24 b 1031 831 810 50 1031 818 b 1011 850 1031 840 1022 850 z "},"X":{"ha":578,"x_min":0,"x_max":0,"o":"m 517 846 b 499 836 508 846 503 843 l 289 461 l 78 836 b 61 846 75 843 69 846 b 42 826 49 846 42 839 b 267 422 42 811 244 460 b 42 17 244 383 42 31 b 61 -3 42 4 49 -3 b 78 7 68 -3 74 0 l 289 382 l 499 7 b 517 -3 503 0 510 -3 b 536 17 526 -3 536 6 b 311 422 536 31 333 383 b 536 826 333 460 536 811 b 517 846 536 838 526 846 z "},"Y":{"ha":569,"x_min":0,"x_max":0,"o":"m 508 849 b 492 838 500 849 494 844 l 285 449 l 78 838 b 61 849 75 844 69 849 b 42 829 50 849 42 839 b 265 403 42 815 244 440 l 265 14 b 285 -6 265 1 272 -6 b 304 14 297 -6 304 1 l 304 401 b 528 829 326 440 528 815 b 508 849 528 839 519 849 z "},"Z":{"ha":635,"x_min":0,"x_max":0,"o":"m 565 818 b 546 838 565 831 558 838 l 104 838 b 85 818 92 838 85 831 b 104 799 85 808 93 799 l 513 799 b 69 26 475 739 69 40 b 89 7 69 14 76 7 l 532 7 b 551 26 544 7 551 14 b 532 46 551 36 543 46 l 122 46 b 565 818 160 106 565 804 z "},"[":{"ha":369,"x_min":0,"x_max":0,"o":"m 300 815 b 281 835 300 828 293 835 l 89 835 b 69 815 76 835 69 828 l 69 -258 b 89 -278 69 -271 76 -278 l 281 -278 b 300 -258 293 -278 300 -271 b 281 -239 300 -249 292 -239 l 108 -239 l 108 796 l 281 796 b 300 815 292 796 300 806 z "},"\\":{"ha":422,"x_min":0,"x_max":0,"o":"m 89 -17 b 107 -3 99 -17 104 -12 b 353 819 129 56 353 810 b 333 839 353 831 343 839 b 315 825 324 839 317 835 b 69 3 293 765 69 11 b 89 -17 69 -10 76 -17 z "},"]":{"ha":369,"x_min":0,"x_max":0,"o":"m 69 815 b 89 796 69 806 78 796 l 263 796 l 263 -239 l 89 -239 b 69 -258 78 -239 69 -249 b 89 -278 69 -271 76 -278 l 281 -278 b 300 -258 293 -278 300 -271 l 300 815 b 281 835 300 828 293 835 l 89 835 b 69 815 76 835 69 828 z "},"^":{"ha":472,"x_min":0,"x_max":0,"o":"m 383 475 b 403 494 396 475 403 482 b 256 807 403 507 272 778 b 236 818 251 814 246 818 b 217 807 226 818 221 814 b 69 494 201 775 69 508 b 89 475 69 482 76 475 b 106 486 97 475 103 479 l 236 758 l 367 486 b 383 475 369 479 375 475 z "},"_":{"ha":529,"x_min":0,"x_max":0,"o":"m 0 -56 l 0 -75 l 529 -75 l 529 -56 z "},"`":{"ha":358,"x_min":0,"x_max":0,"o":"m 115 819 b 96 800 103 819 96 813 b 101 786 96 794 97 790 l 229 658 b 243 653 233 654 238 653 b 263 672 256 653 263 660 b 257 686 263 676 261 681 l 129 814 b 115 819 125 818 121 819 z "},"a":{"ha":617,"x_min":0,"x_max":0,"o":"m 500 457 b 481 438 489 457 481 447 l 481 344 b 286 465 442 415 369 465 b 63 224 157 465 63 350 b 286 -18 63 97 157 -18 b 481 103 369 -18 442 32 l 481 14 b 500 -6 481 1 488 -6 b 519 14 513 -6 519 1 l 519 438 b 500 457 519 447 511 457 z m 286 21 b 101 224 179 21 101 119 b 286 426 101 328 179 426 b 471 224 397 426 471 328 b 286 21 471 119 397 21 z "},"b":{"ha":617,"x_min":0,"x_max":0,"o":"m 331 463 b 136 340 247 463 175 413 l 136 824 b 117 843 136 833 128 843 b 97 824 106 843 97 833 l 97 10 b 117 -10 97 0 106 -10 b 136 10 128 -10 136 0 l 136 100 b 331 -21 175 28 247 -21 b 554 221 460 -21 554 94 b 331 463 554 347 460 463 z m 331 18 b 144 221 221 18 144 117 b 331 424 144 324 221 424 b 515 221 438 424 515 324 b 331 18 515 117 438 18 z "},"c":{"ha":531,"x_min":0,"x_max":0,"o":"m 476 100 b 456 119 476 111 467 119 b 438 107 447 119 442 115 b 286 21 410 56 346 21 b 101 224 179 21 101 119 b 286 426 101 328 179 426 b 439 338 351 426 407 392 b 454 331 443 333 449 331 b 474 350 467 331 474 338 b 446 394 474 361 453 385 b 286 465 403 439 347 465 b 63 224 157 465 63 350 b 286 -18 63 97 157 -18 b 472 89 364 -18 432 24 b 476 100 475 93 476 96 z "},"d":{"ha":617,"x_min":0,"x_max":0,"o":"m 500 844 b 481 825 489 844 481 835 l 481 342 b 286 464 442 414 369 464 b 63 222 157 464 63 349 b 286 -19 63 96 157 -19 b 481 101 369 -19 442 29 l 481 13 b 500 -7 481 0 488 -7 b 519 13 513 -7 519 0 l 519 825 b 500 844 519 835 511 844 z m 286 19 b 101 222 179 19 101 118 b 286 425 101 326 179 425 b 471 222 397 425 471 326 b 286 19 471 118 397 19 z "},"e":{"ha":574,"x_min":0,"x_max":0,"o":"m 286 465 b 63 224 157 465 63 350 b 286 -18 63 97 157 -18 b 479 83 364 -18 440 15 b 482 93 481 88 482 90 b 463 113 482 106 475 113 b 446 103 456 113 450 110 b 286 21 408 49 354 21 b 103 204 183 21 114 108 l 490 204 b 511 224 501 204 511 213 b 286 465 511 350 417 465 z m 103 243 b 286 426 114 339 183 426 b 469 243 386 426 463 339 z "},"f":{"ha":461,"x_min":0,"x_max":0,"o":"m 349 456 b 329 475 349 467 339 475 l 189 475 l 189 710 b 306 807 189 778 243 807 b 443 738 388 807 426 738 b 463 757 454 738 463 747 b 304 846 463 807 346 846 b 150 701 210 846 150 796 l 150 475 l 61 475 b 42 456 49 475 42 468 b 61 436 42 443 49 436 l 150 436 l 150 10 b 169 -10 150 0 158 -10 b 189 10 181 -10 189 0 l 189 436 l 329 436 b 349 456 339 436 349 444 z "},"g":{"ha":610,"x_min":0,"x_max":0,"o":"m 493 456 b 474 436 483 456 474 447 l 474 357 b 286 467 433 424 364 467 b 63 225 157 467 63 351 b 286 -17 63 99 157 -17 b 474 93 364 -17 433 28 l 474 -119 b 296 -233 474 -214 329 -233 b 128 -172 200 -233 139 -172 b 108 -192 118 -172 108 -181 b 296 -272 108 -239 250 -272 b 503 -156 382 -272 469 -239 b 513 -119 507 -146 513 -129 l 513 436 b 493 456 513 449 506 456 z m 286 22 b 101 225 179 22 101 122 b 286 428 101 329 179 428 b 471 225 397 428 471 329 b 286 22 471 122 397 22 z "},"h":{"ha":575,"x_min":0,"x_max":0,"o":"m 299 464 b 136 364 228 464 169 424 l 136 824 b 117 843 136 833 128 843 b 97 824 106 843 97 833 l 97 11 b 117 -8 97 -1 104 -8 b 136 11 129 -8 136 -1 l 136 197 b 133 233 136 206 133 221 b 299 425 133 333 186 425 b 439 258 392 425 439 342 l 439 11 b 458 -8 439 -1 446 -8 b 478 11 468 -8 478 0 l 478 258 b 299 464 478 364 414 464 z "},"i":{"ha":258,"x_min":0,"x_max":0,"o":"m 161 589 b 129 621 161 607 146 621 b 97 589 111 621 97 607 b 129 558 97 572 111 558 b 161 589 146 558 161 572 z m 129 453 b 110 433 118 453 110 443 l 110 11 b 129 -8 110 1 118 -8 b 149 11 139 -8 149 1 l 149 433 b 129 453 149 443 139 453 z "},"j":{"ha":253,"x_min":0,"x_max":0,"o":"m 156 589 b 125 621 156 607 142 621 b 93 589 107 621 93 607 b 125 558 93 572 107 558 b 156 589 142 558 156 572 z m 125 453 b 106 433 114 453 106 443 l 106 -86 b -8 -231 106 -151 85 -218 b -28 -250 -21 -232 -28 -239 b -8 -269 -28 -261 -18 -269 b 144 -90 94 -269 144 -185 l 144 433 b 125 453 144 443 135 453 z "},"k":{"ha":478,"x_min":0,"x_max":0,"o":"m 247 282 l 422 426 b 429 442 426 429 429 435 b 410 461 429 451 419 461 b 397 456 406 461 401 460 l 136 242 l 136 824 b 117 843 136 833 128 843 b 97 824 106 843 97 833 l 97 10 b 117 -10 97 0 106 -10 b 136 10 128 -10 136 0 l 136 190 l 217 257 l 401 -1 b 417 -10 404 -7 410 -10 b 436 10 429 -10 436 -3 b 433 21 436 14 435 17 z "},"l":{"ha":233,"x_min":0,"x_max":0,"o":"m 117 843 b 97 824 106 843 97 833 l 97 10 b 117 -10 97 0 106 -10 b 136 10 128 -10 136 0 l 136 824 b 117 843 136 833 128 843 z "},"m":{"ha":915,"x_min":0,"x_max":0,"o":"m 639 464 b 464 340 557 464 496 413 b 299 464 438 414 378 464 b 136 365 228 464 169 425 l 136 436 b 117 456 136 449 129 456 b 97 436 104 456 97 449 l 97 11 b 117 -8 97 -1 104 -8 b 136 11 129 -8 136 -1 l 136 199 b 136 200 136 199 136 200 b 136 222 136 207 136 215 b 299 425 136 338 185 425 b 439 260 392 425 439 343 l 439 11 b 458 -8 439 -1 446 -8 b 478 11 468 -8 478 0 l 478 203 b 639 425 478 300 522 425 b 779 260 732 425 779 343 l 779 11 b 799 -8 779 -1 786 -8 b 818 11 808 -8 818 0 l 818 260 b 639 464 818 365 754 464 z "},"n":{"ha":574,"x_min":0,"x_max":0,"o":"m 297 467 b 136 369 226 467 171 429 l 136 438 b 117 457 136 450 129 457 b 97 438 104 457 97 450 l 97 13 b 117 -7 97 0 104 -7 b 136 13 129 -7 136 0 l 136 207 b 297 428 136 324 181 428 b 438 261 390 428 438 346 l 438 14 b 457 -6 438 1 444 -6 b 476 14 467 -6 476 3 l 476 261 b 297 467 476 367 413 467 z "},"o":{"ha":574,"x_min":0,"x_max":0,"o":"m 286 467 b 63 225 157 467 63 351 b 286 -17 63 99 157 -17 b 511 225 417 -17 511 99 b 286 467 511 351 417 467 z m 286 22 b 101 225 179 22 101 121 b 286 426 101 328 179 426 b 471 225 397 426 471 328 b 286 22 471 121 397 22 z "},"p":{"ha":617,"x_min":0,"x_max":0,"o":"m 331 465 b 136 343 247 465 175 415 l 136 438 b 117 457 136 447 128 457 b 97 438 106 457 97 447 l 97 -254 b 117 -274 97 -267 104 -274 b 136 -254 129 -274 136 -267 l 136 103 b 331 -18 175 31 247 -18 b 554 224 460 -18 554 97 b 331 465 554 350 460 465 z m 331 21 b 144 224 221 21 144 119 b 331 426 144 328 221 426 b 515 224 438 426 515 328 b 331 21 515 119 438 21 z "},"q":{"ha":617,"x_min":0,"x_max":0,"o":"m 500 457 b 481 438 489 457 481 447 l 481 344 b 286 465 442 417 369 465 b 63 224 157 465 63 350 b 286 -18 63 97 157 -18 b 481 103 369 -18 442 32 l 481 -254 b 500 -274 481 -267 488 -274 b 519 -254 513 -274 519 -267 l 519 438 b 500 457 519 447 511 457 z m 286 21 b 101 224 179 21 101 119 b 286 426 101 328 179 426 b 471 224 397 426 471 328 b 286 21 471 119 397 21 z "},"r":{"ha":361,"x_min":0,"x_max":0,"o":"m 299 456 b 136 350 231 456 168 404 l 136 436 b 117 456 136 449 129 456 b 97 436 104 456 97 449 l 97 13 b 117 -7 97 0 104 -7 b 136 13 129 -7 136 0 l 136 199 b 301 417 136 307 186 399 b 319 438 314 418 319 425 b 299 456 319 449 308 456 z "},"s":{"ha":532,"x_min":0,"x_max":0,"o":"m 121 346 b 260 422 121 411 210 422 b 406 328 324 422 390 410 b 424 307 406 318 411 307 b 444 325 433 307 444 314 b 260 461 444 429 347 461 b 82 344 186 461 82 439 b 417 125 82 182 417 265 b 268 19 417 51 331 19 b 115 133 189 19 115 40 b 100 156 115 143 111 156 b 76 124 78 156 76 142 b 268 -19 76 18 176 -19 b 456 125 353 -19 456 26 b 121 346 456 304 121 226 z "},"t":{"ha":365,"x_min":0,"x_max":0,"o":"m 200 456 l 200 606 b 181 625 200 618 193 625 b 161 606 168 625 161 618 l 161 456 l 61 456 b 42 436 50 456 42 446 b 61 417 42 424 49 417 l 161 417 l 161 8 b 181 -11 161 -1 169 -11 b 200 8 192 -11 200 -1 l 200 417 l 304 417 b 324 436 317 417 324 424 b 304 456 324 446 315 456 z "},"u":{"ha":574,"x_min":0,"x_max":0,"o":"m 457 453 b 438 433 446 453 438 443 l 438 275 b 276 18 438 142 406 18 b 136 185 183 18 136 101 l 136 433 b 117 453 136 443 128 453 b 97 433 106 453 97 443 l 97 185 b 276 -21 97 79 161 -21 b 438 89 349 -21 406 24 l 438 8 b 457 -11 438 -4 444 -11 b 476 8 467 -11 476 -3 l 476 433 b 457 453 476 443 467 453 z "},"v":{"ha":464,"x_min":0,"x_max":0,"o":"m 403 456 b 385 443 394 456 389 451 l 232 46 l 79 443 b 61 456 75 451 69 456 b 42 436 49 456 42 449 b 211 -7 42 426 196 31 b 232 -19 215 -15 222 -19 b 253 -7 243 -19 250 -15 b 422 436 268 31 422 426 b 403 456 422 449 415 456 z "},"w":{"ha":758,"x_min":0,"x_max":0,"o":"m 697 458 b 679 446 688 458 682 454 l 539 53 l 400 446 b 379 458 396 454 389 458 b 360 446 369 458 363 454 l 219 53 l 79 446 b 61 458 76 454 71 458 b 42 439 49 458 42 451 b 199 -3 42 432 182 31 b 219 -15 203 -14 210 -15 b 240 -3 229 -15 236 -14 l 379 386 l 518 -3 b 539 -15 522 -14 529 -15 b 560 -3 549 -15 556 -14 b 717 439 572 35 717 429 b 697 458 717 451 710 458 z "},"x":{"ha":456,"x_min":0,"x_max":0,"o":"m 374 457 b 358 449 367 457 361 454 l 228 260 l 99 449 b 82 457 94 454 89 457 b 63 438 69 457 63 450 b 65 426 63 436 64 432 l 204 225 l 65 22 b 63 11 64 18 63 15 b 82 -8 63 -1 69 -8 b 99 0 89 -8 94 -6 l 228 190 l 358 0 b 374 -8 361 -6 367 -8 b 393 11 386 -8 393 -1 b 390 22 393 15 392 18 l 251 225 l 390 426 b 393 438 392 432 393 436 b 374 457 393 450 386 457 z "},"y":{"ha":472,"x_min":0,"x_max":0,"o":"m 411 457 b 393 444 401 457 396 453 l 240 53 l 79 446 b 61 457 76 453 71 457 b 42 438 49 457 42 450 b 221 3 42 431 215 8 b 121 -258 210 -24 121 -247 b 140 -278 121 -268 131 -278 b 158 -265 149 -278 154 -274 b 431 438 181 -212 431 428 b 411 457 431 450 424 457 z "},"z":{"ha":500,"x_min":0,"x_max":0,"o":"m 438 422 b 418 442 438 432 428 442 l 96 442 b 76 422 86 442 76 432 b 96 403 76 411 86 403 l 375 403 l 67 36 b 63 24 64 33 63 29 b 82 4 63 14 71 4 l 403 4 b 422 24 414 4 422 14 b 403 43 422 36 415 43 l 124 43 l 432 410 b 438 422 436 414 438 418 z "},"{":{"ha":514,"x_min":0,"x_max":0,"o":"m 418 826 b 399 846 418 838 408 846 l 301 846 b 185 725 236 846 185 790 l 185 378 b 181 319 185 347 185 329 b 114 306 174 303 157 306 b 96 285 103 306 96 294 b 118 264 96 267 106 264 b 176 254 139 264 161 269 b 185 222 183 247 185 236 b 185 192 185 214 185 203 l 185 -156 b 301 -276 185 -221 236 -276 l 399 -276 b 418 -257 408 -276 418 -267 b 399 -237 418 -246 408 -237 l 301 -237 b 224 -156 257 -237 224 -199 l 224 192 b 204 285 224 221 225 263 b 224 378 225 308 224 349 l 224 725 b 301 807 224 768 257 807 l 399 807 b 418 826 408 807 418 815 z "},"|":{"ha":231,"x_min":0,"x_max":0,"o":"m 96 -258 b 115 -278 96 -271 103 -278 b 135 -258 128 -278 135 -271 l 135 829 b 115 849 135 842 128 849 b 96 829 103 849 96 842 z "},"}":{"ha":514,"x_min":0,"x_max":0,"o":"m 96 826 b 115 807 96 814 103 807 l 213 807 b 290 725 257 807 290 768 l 290 378 b 310 285 290 349 289 308 b 290 192 289 263 290 221 l 290 -156 b 213 -237 290 -199 257 -237 l 115 -237 b 96 -257 103 -237 96 -244 b 115 -276 96 -267 104 -276 l 213 -276 b 329 -156 278 -276 329 -221 l 329 192 b 329 222 329 203 329 214 b 376 265 329 251 333 265 b 394 264 382 265 389 264 b 418 285 407 264 418 267 b 372 306 418 310 389 306 b 329 378 329 306 329 310 l 329 725 b 213 846 329 790 278 846 l 115 846 b 96 826 103 846 96 839 z "},"~":{"ha":664,"x_min":0,"x_max":0,"o":"m 547 493 b 460 363 511 493 549 363 b 215 500 353 363 339 500 b 96 354 132 500 96 428 b 115 335 96 344 104 335 b 215 461 150 335 124 461 b 460 324 314 461 332 324 b 568 468 542 324 568 397 b 547 493 568 483 565 493 z "}," ":{"ha":0,"x_min":0,"x_max":0,"o":""},"¡":{"ha":256,"x_min":0,"x_max":0,"o":"m 128 500 b 108 481 115 500 108 493 l 108 -167 b 128 -186 108 -179 115 -186 b 147 -167 138 -186 147 -178 l 147 481 b 128 500 147 492 138 500 z m 128 606 b 160 638 144 606 160 619 b 128 669 160 654 144 669 b 96 638 110 669 96 654 b 128 606 96 619 110 606 z "},"¢":{"ha":600,"x_min":0,"x_max":0,"o":"m 504 558 b 394 651 479 601 443 633 b 442 822 399 671 442 811 b 422 842 442 832 433 842 b 404 826 413 842 406 836 l 357 663 b 319 665 344 664 332 665 b 96 425 190 665 96 550 b 229 204 96 335 146 244 b 178 19 222 188 178 25 b 197 0 178 7 185 0 b 215 14 207 0 214 4 l 265 192 b 319 185 283 186 301 185 b 504 290 397 185 464 225 b 488 282 499 285 493 282 b 468 301 478 282 468 292 b 469 308 468 306 469 307 b 319 224 436 257 381 224 b 276 229 303 224 289 225 l 385 614 b 469 542 419 599 449 574 b 468 549 468 543 468 544 b 488 568 468 558 478 568 b 504 558 494 568 500 565 z m 135 425 b 319 626 135 529 213 626 b 347 625 329 626 338 626 l 240 243 b 135 425 174 278 135 351 z "},"£":{"ha":764,"x_min":0,"x_max":0,"o":"m 592 17 b 513 35 565 17 539 25 b 344 68 456 56 404 68 b 239 56 308 68 274 64 b 274 188 265 94 274 142 b 218 414 274 271 247 338 l 383 414 b 403 433 394 414 403 424 b 383 453 403 446 396 453 l 201 453 b 172 590 185 499 172 540 b 396 814 172 714 272 814 b 576 722 465 814 535 779 b 619 665 590 703 600 664 b 639 685 629 665 639 674 b 638 693 639 689 638 689 b 396 853 594 789 501 853 b 133 590 251 853 133 735 b 160 453 133 542 143 499 b 129 454 153 453 142 454 b 96 433 113 454 96 450 b 138 413 96 415 117 413 b 175 414 153 413 167 414 b 235 188 207 338 235 271 b 158 32 235 133 214 54 b 131 8 146 26 131 24 l 132 -1 b 149 -12 138 -8 143 -12 b 169 -6 158 -12 163 -10 b 344 29 224 17 285 29 b 500 -1 401 29 446 17 b 592 -22 529 -11 560 -22 b 668 14 611 -22 668 -12 b 649 33 668 24 658 33 b 592 17 636 33 619 17 z "},"¤":{"ha":651,"x_min":0,"x_max":0,"o":"m 413 819 b 563 747 497 819 546 747 b 582 767 575 747 582 754 b 576 779 582 772 581 776 b 413 858 538 825 474 858 b 135 519 243 858 157 660 b 104 521 128 519 117 521 b 69 500 86 521 69 517 b 103 479 69 482 86 479 b 129 481 113 479 122 481 b 126 425 128 460 126 443 b 103 425 121 425 113 425 b 69 406 86 425 69 422 b 101 385 69 388 86 385 b 126 386 111 385 121 386 b 413 -24 133 226 219 -24 b 576 54 474 -24 538 8 b 582 68 581 58 582 63 b 563 88 582 78 574 88 b 413 15 546 88 497 15 b 165 386 244 15 172 250 l 425 386 b 444 406 435 386 444 394 b 425 425 444 415 435 425 l 165 425 b 168 481 165 443 167 460 l 425 481 b 444 500 435 481 444 489 b 425 519 444 511 435 519 l 174 519 b 413 819 192 639 269 819 z "},"¥":{"ha":676,"x_min":0,"x_max":0,"o":"m 561 843 b 544 833 553 843 547 840 l 338 444 l 132 833 b 115 843 128 840 122 843 b 96 824 103 843 96 836 b 317 403 96 811 294 442 l 144 403 b 125 383 132 403 125 396 b 144 365 125 371 132 365 l 318 365 l 318 258 l 144 258 b 125 239 133 258 125 249 b 144 219 125 226 132 219 l 318 219 l 318 11 b 338 -8 318 1 328 -8 b 357 11 349 -8 357 1 l 357 219 l 532 219 b 551 239 544 219 551 226 b 532 258 551 249 543 258 l 357 258 l 357 365 l 532 365 b 551 383 544 365 551 371 b 532 403 551 396 544 403 l 360 403 b 581 824 382 442 581 811 b 561 843 581 836 574 843 z "},"¦":{"ha":231,"x_min":0,"x_max":0,"o":"m 115 165 b 96 146 103 165 96 158 l 96 -262 b 115 -282 96 -275 103 -282 b 135 -262 128 -282 135 -275 l 135 146 b 115 165 135 158 128 165 z m 115 847 b 96 828 104 847 96 838 l 96 418 b 115 399 96 408 104 399 b 135 418 126 399 135 408 l 135 828 b 115 847 135 838 126 847 z "},"§":{"ha":678,"x_min":0,"x_max":0,"o":"m 135 647 b 317 818 135 747 222 818 l 325 818 b 500 686 414 814 474 775 b 526 611 508 656 501 611 b 546 629 539 611 546 617 b 317 857 546 763 450 857 b 96 647 199 857 96 769 b 142 524 96 599 111 558 b 96 396 111 486 96 443 b 544 -49 96 118 544 225 b 347 -236 544 -165 458 -236 b 138 -49 236 -236 138 -158 b 115 -7 138 -29 133 -7 b 96 -26 106 -7 96 -15 b 347 -275 96 -175 200 -275 b 582 -49 481 -275 582 -187 b 544 74 582 -3 569 38 b 582 204 571 111 582 158 b 333 463 582 346 456 422 b 135 647 240 492 135 532 z m 135 396 b 171 497 135 436 147 469 b 544 204 272 411 544 408 b 518 104 544 171 536 136 b 333 210 468 158 401 188 b 135 396 240 239 135 281 z "},"¨":{"ha":385,"x_min":0,"x_max":0,"o":"m 128 765 b 96 733 110 765 96 750 b 128 701 96 715 110 701 b 160 733 144 701 160 715 b 128 765 160 750 144 765 z m 289 733 b 257 765 289 750 275 765 b 225 733 240 765 225 750 b 257 701 225 715 240 701 b 289 733 275 701 289 715 z "},"©":{"ha":1075,"x_min":0,"x_max":0,"o":"m 538 856 b 96 413 294 856 96 657 b 538 -29 96 169 294 -29 b 979 413 781 -29 979 169 b 538 856 979 657 781 856 z m 538 10 b 135 413 315 10 135 192 b 538 817 135 635 315 817 b 940 413 760 817 940 635 b 538 10 940 192 760 10 z m 547 607 b 678 549 597 607 644 586 b 718 511 688 538 697 511 b 736 529 731 511 736 517 b 706 575 736 539 713 568 b 547 646 665 619 608 646 b 325 406 419 646 325 533 b 547 165 325 281 419 165 b 706 238 608 165 665 193 b 738 288 715 247 738 272 b 721 306 738 300 732 306 b 678 263 700 306 688 274 b 547 204 644 225 597 204 b 364 406 442 204 364 301 b 547 607 364 510 442 607 z "},"ª":{"ha":518,"x_min":0,"x_max":0,"o":"m 403 839 b 382 807 385 839 382 824 b 383 782 382 797 383 788 b 257 846 351 821 307 846 b 96 672 163 846 96 763 b 257 499 96 582 163 499 b 383 564 307 499 351 524 b 382 538 383 557 382 547 b 403 506 382 522 385 506 b 422 525 413 506 422 515 l 422 819 b 403 839 422 831 413 839 z m 257 538 b 135 672 185 538 135 606 b 257 808 135 742 185 808 b 381 672 331 808 381 742 b 257 538 381 606 331 538 z "},"«":{"ha":399,"x_min":0,"x_max":0,"o":"m 110 221 b 208 436 121 247 208 419 b 189 456 208 446 199 456 b 171 443 181 456 175 451 l 72 232 b 69 226 71 231 69 228 b 71 221 69 225 71 224 b 69 214 71 218 69 217 b 72 210 69 213 71 211 l 171 -1 b 189 -12 174 -8 179 -12 b 208 7 199 -12 208 -4 b 110 221 208 22 121 194 z m 310 456 b 293 444 301 456 296 451 l 193 233 b 192 229 193 232 192 231 b 193 222 192 226 193 225 b 192 214 193 219 192 217 b 193 210 192 213 193 211 l 293 -1 b 310 -12 297 -8 303 -12 b 329 7 321 -12 329 -3 b 231 222 329 24 242 196 b 329 436 242 249 329 421 b 310 456 329 449 322 456 z "},"¬":{"ha":572,"x_min":0,"x_max":0,"o":"m 115 472 b 268 572 129 472 247 558 l 268 413 b 288 393 268 400 275 393 b 307 413 300 393 307 400 l 307 579 b 457 481 329 564 440 481 b 476 500 469 481 476 488 b 468 517 476 507 474 513 l 326 611 l 468 707 b 476 724 474 711 476 717 b 457 743 476 736 469 743 b 307 644 440 743 329 660 l 307 811 b 288 831 307 824 300 831 b 268 811 275 831 268 824 l 268 651 b 115 751 247 665 129 751 b 96 732 103 751 96 744 b 104 715 96 725 99 719 l 258 611 l 104 508 b 96 492 99 504 96 499 b 115 472 96 479 103 472 z "},"­":{"ha":504,"x_min":0,"x_max":0,"o":"m 390 431 b 408 450 400 431 408 440 b 390 469 408 463 403 469 l 115 469 b 96 450 103 469 96 463 b 115 431 96 440 104 431 z "},"®":{"ha":1075,"x_min":0,"x_max":0,"o":"m 538 857 b 96 415 294 857 96 658 b 538 -26 96 172 294 -26 b 979 415 781 -26 979 172 b 538 857 979 658 781 857 z m 538 13 b 135 415 315 13 135 193 b 538 818 135 638 315 818 b 940 415 760 818 940 638 b 538 13 940 193 760 13 z m 601 386 b 721 513 661 401 721 446 b 544 646 721 601 621 646 l 417 646 b 399 626 407 646 399 636 l 399 201 b 417 182 399 189 404 182 b 436 201 429 182 436 189 l 436 378 b 507 376 461 378 485 376 b 560 379 525 376 542 378 l 694 190 b 710 183 697 186 703 183 b 729 201 722 183 729 189 b 601 386 729 217 617 364 z m 436 417 l 436 607 l 544 607 b 682 513 599 607 682 578 b 544 417 682 446 599 417 z "},"¯":{"ha":572,"x_min":0,"x_max":0,"o":"m 115 472 b 268 572 129 472 247 558 l 268 413 b 288 393 268 400 275 393 b 307 413 300 393 307 400 l 307 579 b 457 481 329 564 440 481 b 476 500 469 481 476 488 b 468 517 476 507 474 513 l 326 611 l 468 707 b 476 724 474 711 476 717 b 457 743 476 736 469 743 b 307 644 440 743 329 660 l 307 811 b 288 831 307 824 300 831 b 268 811 275 831 268 824 l 268 651 b 115 751 247 665 129 751 b 96 732 103 751 96 744 b 104 715 96 725 99 719 l 258 611 l 104 508 b 96 492 99 504 96 499 b 115 472 96 479 103 472 z "},"°":{"ha":449,"x_min":0,"x_max":0,"o":"m 225 849 b 96 719 153 849 96 790 b 225 590 96 649 153 590 b 353 719 297 590 353 649 b 225 849 353 790 297 849 z m 225 619 b 125 719 169 619 125 665 b 225 819 125 774 169 819 b 324 719 279 819 324 774 b 225 619 324 665 279 619 z "},"±":{"ha":572,"x_min":0,"x_max":0,"o":"m 115 472 b 268 572 129 472 247 558 l 268 413 b 288 393 268 400 275 393 b 307 413 300 393 307 400 l 307 579 b 457 481 329 564 440 481 b 476 500 469 481 476 488 b 468 517 476 507 474 513 l 326 611 l 468 707 b 476 724 474 711 476 717 b 457 743 476 736 469 743 b 307 644 440 743 329 660 l 307 811 b 288 831 307 824 300 831 b 268 811 275 831 268 824 l 268 651 b 115 751 247 665 129 751 b 96 732 103 751 96 744 b 104 715 96 725 99 719 l 258 611 l 104 508 b 96 492 99 504 96 499 b 115 472 96 479 103 472 z "},"²":{"ha":449,"x_min":0,"x_max":0,"o":"m 353 708 b 224 840 353 781 297 840 b 96 710 151 840 96 781 b 115 690 96 700 104 690 b 135 710 126 690 135 700 b 224 801 135 760 174 801 b 314 710 275 801 314 760 b 97 417 314 567 97 586 b 117 397 99 400 115 397 l 329 397 b 349 417 339 397 349 406 b 329 436 349 426 339 436 l 138 436 b 353 708 154 560 353 544 z "},"³":{"ha":464,"x_min":0,"x_max":0,"o":"m 232 422 b 135 515 181 422 135 461 b 115 535 135 528 128 535 b 96 515 103 535 96 528 b 232 383 96 442 160 383 b 368 515 304 383 368 442 b 303 629 368 564 343 606 b 358 726 336 650 358 686 b 232 842 358 794 297 842 b 106 726 167 842 106 794 b 125 707 106 715 115 707 b 144 726 138 707 144 714 b 232 803 144 772 189 803 b 319 726 276 803 319 772 b 232 649 319 678 276 649 b 213 629 221 649 213 639 b 232 610 213 617 219 610 b 329 515 286 610 329 569 b 232 422 329 461 286 422 z "},"´":{"ha":360,"x_min":0,"x_max":0,"o":"m 96 907 b 115 888 96 897 104 888 b 129 894 119 888 125 890 l 244 1007 b 250 1019 249 1011 250 1015 b 231 1039 250 1031 240 1039 b 217 1033 224 1039 219 1038 l 101 921 b 96 907 97 918 96 914 z "},"µ":{"ha":572,"x_min":0,"x_max":0,"o":"m 115 472 b 268 572 129 472 247 558 l 268 413 b 288 393 268 400 275 393 b 307 413 300 393 307 400 l 307 579 b 457 481 329 564 440 481 b 476 500 469 481 476 488 b 468 517 476 507 474 513 l 326 611 l 468 707 b 476 724 474 711 476 717 b 457 743 476 736 469 743 b 307 644 440 743 329 660 l 307 811 b 288 831 307 824 300 831 b 268 811 275 831 268 824 l 268 651 b 115 751 247 665 129 751 b 96 732 103 751 96 744 b 104 715 96 725 99 719 l 258 611 l 104 508 b 96 492 99 504 96 499 b 115 472 96 479 103 472 z "},"¶":{"ha":826,"x_min":0,"x_max":0,"o":"m 650 832 b 643 833 649 833 647 833 b 636 832 639 833 638 833 l 400 832 b 393 833 399 833 396 833 b 385 832 389 833 386 833 l 318 832 b 96 610 196 832 96 732 b 318 388 96 488 196 388 l 374 388 l 374 -268 b 393 -287 374 -278 382 -287 b 411 -268 403 -287 411 -278 l 411 793 l 624 793 l 624 -268 b 643 -287 624 -278 632 -287 b 663 -268 654 -287 663 -278 l 663 793 b 693 792 669 793 682 792 b 731 813 713 792 731 794 b 711 832 731 825 724 832 z m 374 426 l 318 426 b 135 610 218 426 135 510 b 318 793 135 710 218 793 l 374 793 z "},"·":{"ha":256,"x_min":0,"x_max":0,"o":"m 128 413 b 96 382 110 413 96 399 b 128 350 96 364 110 350 b 160 382 144 350 160 364 b 128 413 160 399 144 413 z "},"¸":{"ha":340,"x_min":0,"x_max":0,"o":"m 106 -210 b 124 -231 106 -221 114 -231 b 244 -107 178 -231 244 -161 b 194 -51 244 -75 226 -51 b 142 -67 174 -51 157 -57 b 151 -6 146 -46 151 -24 b 132 14 151 7 144 14 b 96 -103 108 14 96 -69 b 115 -124 96 -114 104 -124 b 193 -90 128 -124 165 -90 b 206 -107 204 -90 206 -97 b 124 -192 206 -144 157 -187 b 106 -210 111 -193 106 -200 z "},"¹":{"ha":324,"x_min":0,"x_max":0,"o":"m 189 813 b 169 832 189 825 182 832 b 96 775 136 832 96 778 b 115 756 96 765 104 756 b 150 776 126 756 140 771 l 150 433 b 113 414 135 433 113 436 b 132 394 113 401 119 394 l 208 394 b 228 414 218 394 228 403 b 189 433 228 436 204 433 z "},"º":{"ha":515,"x_min":0,"x_max":0,"o":"m 257 846 b 96 671 163 846 96 761 b 257 497 96 581 163 497 b 419 671 351 497 419 581 b 257 846 419 761 351 846 z m 257 536 b 135 671 185 536 135 604 b 257 807 135 740 185 807 b 381 671 331 807 381 740 b 257 536 381 604 331 536 z "},"»":{"ha":399,"x_min":0,"x_max":0,"o":"m 289 221 b 190 7 278 194 190 22 b 210 -12 190 -4 200 -12 b 228 -1 219 -12 225 -8 l 326 210 b 329 214 328 211 329 213 b 328 221 329 217 328 218 b 329 226 328 224 329 225 b 326 232 329 228 328 231 l 228 443 b 210 456 224 451 218 456 b 190 436 200 456 190 446 b 289 221 190 419 278 247 z m 89 456 b 69 436 76 456 69 449 b 168 222 69 421 157 249 b 69 7 157 196 69 24 b 89 -12 69 -3 78 -12 b 106 -1 96 -12 101 -8 l 206 210 b 206 214 206 211 206 213 b 206 222 206 217 206 219 b 206 229 206 225 206 226 b 206 233 206 231 206 232 l 106 444 b 89 456 103 451 97 456 z "},"¼":{"ha":825,"x_min":0,"x_max":0,"o":"m 189 876 b 169 896 189 889 182 896 b 96 840 138 896 96 843 b 115 821 96 828 103 821 b 150 840 126 821 140 835 l 150 497 b 113 478 135 497 113 500 b 132 458 113 465 119 458 l 208 458 b 228 478 218 458 228 467 b 189 497 228 500 204 497 z m 169 -17 b 188 -6 179 -17 185 -12 b 575 815 217 60 575 801 b 557 835 575 828 569 835 b 539 824 547 835 542 831 b 150 3 510 758 150 17 b 169 -17 150 -8 160 -17 z m 729 231 b 700 250 729 247 714 250 b 679 250 692 250 685 250 l 679 428 b 660 447 679 438 671 447 b 640 428 649 447 640 438 l 640 250 l 508 250 b 539 428 513 283 539 401 b 519 447 539 438 529 447 b 500 431 508 447 501 442 b 465 231 493 397 465 256 b 485 211 465 218 472 211 l 640 211 l 640 18 b 660 -1 640 6 647 -1 b 679 18 672 -1 679 6 l 679 211 b 700 210 685 211 692 210 b 729 231 714 210 729 213 z "},"½":{"ha":846,"x_min":0,"x_max":0,"o":"m 189 876 b 169 896 189 889 182 896 b 96 840 138 896 96 843 b 115 821 96 828 103 821 b 150 840 126 821 140 835 l 150 497 b 113 478 135 497 113 500 b 132 458 113 465 119 458 l 208 458 b 228 478 218 458 228 467 b 189 497 228 500 204 497 z m 169 -17 b 188 -6 179 -17 185 -12 b 575 815 217 60 575 801 b 557 835 575 828 569 835 b 539 824 547 835 542 831 b 150 3 510 758 150 17 b 169 -17 150 -8 160 -17 z m 750 310 b 622 442 750 382 694 442 b 493 311 550 442 493 382 b 513 292 493 301 503 292 b 532 311 524 292 532 301 b 622 403 532 361 572 403 b 711 311 672 403 711 361 b 494 18 711 168 494 188 l 501 4 l 507 0 b 514 -1 511 0 513 -1 l 726 -1 b 746 18 739 -1 746 6 b 726 38 746 31 739 38 l 536 38 b 750 310 553 160 750 147 z "},"¾":{"ha":950,"x_min":0,"x_max":0,"o":"m 294 -17 b 313 -6 304 -17 310 -12 b 701 815 342 60 701 801 b 682 835 701 826 692 835 b 664 824 672 835 667 831 b 276 3 635 758 276 17 b 294 -17 276 -10 282 -17 z m 854 231 b 825 250 854 247 839 250 b 804 250 817 250 810 250 l 804 428 b 785 447 804 438 796 447 b 765 428 775 447 765 438 l 765 250 l 633 250 b 664 428 638 283 664 401 b 644 447 664 438 656 447 b 625 431 633 447 626 442 b 590 231 618 397 590 256 b 610 211 590 219 600 211 l 765 211 l 765 18 b 785 -1 765 7 775 -1 b 804 18 797 -1 804 6 l 804 211 b 825 210 810 211 817 210 b 854 231 839 210 854 213 z m 232 422 b 135 515 181 422 135 461 b 115 535 135 528 128 535 b 96 515 103 535 96 528 b 232 383 96 442 160 383 b 368 515 304 383 368 442 b 303 629 368 564 343 606 b 358 726 336 650 358 686 b 232 843 358 794 297 843 b 106 726 167 843 106 794 b 125 707 106 715 115 707 b 144 726 138 707 144 714 b 232 804 144 772 189 804 b 319 726 276 804 319 772 b 232 649 319 678 276 649 b 213 629 219 649 213 642 b 232 610 213 617 219 610 b 329 515 286 610 329 569 b 232 422 329 461 286 422 z "},"¿":{"ha":669,"x_min":0,"x_max":0,"o":"m 574 -24 b 553 -6 574 -12 564 -6 b 535 -29 538 -6 535 -18 b 331 -218 535 -146 446 -218 b 135 -35 222 -218 135 -146 b 283 172 135 71 208 113 b 393 400 367 238 393 296 l 393 410 b 374 439 393 425 392 439 b 354 400 351 439 354 415 b 260 203 354 307 335 261 b 96 -35 174 136 96 86 b 331 -257 96 -168 203 -257 b 574 -24 471 -257 574 -164 z m 376 544 b 408 575 393 544 408 558 b 376 607 408 593 393 607 b 344 575 358 607 344 593 b 376 544 344 558 358 544 z "},"À":{"ha":669,"x_min":0,"x_max":0,"o":"m 61 -10 b 79 4 71 -10 76 -6 l 185 324 l 485 324 l 589 4 b 608 -10 592 -6 599 -10 b 628 10 618 -10 628 0 b 354 847 628 17 376 789 b 335 860 351 856 344 860 b 315 847 325 860 318 856 b 42 10 293 786 42 18 b 61 -10 42 0 50 -10 z m 335 781 l 472 363 l 197 363 z m 244 1032 b 225 1013 232 1032 225 1025 b 231 999 225 1007 226 1003 l 321 908 b 335 903 325 904 329 903 b 354 922 347 903 354 910 b 349 936 354 926 353 931 l 258 1026 b 244 1032 254 1031 250 1032 z "},"Á":{"ha":669,"x_min":0,"x_max":0,"o":"m 61 -10 b 79 4 71 -10 76 -6 l 185 324 l 485 324 l 589 4 b 608 -10 592 -6 599 -10 b 628 10 618 -10 628 0 b 354 847 628 17 376 789 b 335 860 351 856 344 860 b 315 847 325 860 318 856 b 42 10 293 786 42 18 b 61 -10 42 0 50 -10 z m 335 781 l 472 363 l 197 363 z m 326 907 b 346 888 326 897 335 888 b 360 894 350 888 356 890 l 461 1000 b 467 1013 465 1004 467 1008 b 447 1032 467 1024 457 1032 b 433 1026 440 1032 436 1031 l 332 921 b 326 907 328 918 326 914 z "},"Â":{"ha":669,"x_min":0,"x_max":0,"o":"m 61 -10 b 79 4 71 -10 76 -6 l 185 324 l 485 324 l 589 4 b 608 -10 592 -6 599 -10 b 628 10 618 -10 628 0 b 354 847 628 17 376 789 b 335 860 351 856 344 860 b 315 847 325 860 318 856 b 42 10 293 786 42 18 b 61 -10 42 0 50 -10 z m 335 781 l 472 363 l 197 363 z m 424 876 b 443 896 433 876 443 886 b 358 1031 443 911 369 1011 b 340 1039 354 1036 347 1039 b 324 1031 333 1039 328 1036 b 239 896 313 1011 239 911 b 258 876 239 886 247 876 b 275 886 265 876 271 879 l 340 986 l 407 886 b 424 876 411 879 417 876 z "},"Ã":{"ha":669,"x_min":0,"x_max":0,"o":"m 61 -10 b 79 4 71 -10 76 -6 l 185 324 l 485 324 l 589 4 b 608 -10 592 -6 599 -10 b 628 10 618 -10 628 0 b 354 847 628 17 376 789 b 335 860 351 856 344 860 b 315 847 325 860 318 856 b 42 10 293 786 42 18 b 61 -10 42 0 50 -10 z m 335 781 l 472 363 l 197 363 z m 201 924 b 221 904 201 914 210 904 b 275 1001 257 904 228 1001 b 394 900 313 1001 328 900 b 465 1021 456 900 465 975 b 446 1040 465 1032 456 1040 b 397 939 408 1040 440 939 b 276 1040 354 939 343 1040 b 201 924 217 1040 201 969 z "},"Ä":{"ha":669,"x_min":0,"x_max":0,"o":"m 61 -10 b 79 4 71 -10 76 -6 l 185 324 l 485 324 l 589 4 b 608 -10 592 -6 599 -10 b 628 10 618 -10 628 0 b 354 847 628 17 376 789 b 335 860 351 856 344 860 b 315 847 325 860 318 856 b 42 10 293 786 42 18 b 61 -10 42 0 50 -10 z m 335 781 l 472 363 l 197 363 z m 275 974 b 243 942 257 974 243 958 b 275 910 243 924 257 910 b 307 942 292 910 307 924 b 275 974 307 958 292 974 z m 436 942 b 404 974 436 958 422 974 b 372 942 388 974 372 958 b 404 910 372 924 388 910 b 436 942 422 910 436 924 z "},"Æ":{"ha":572,"x_min":0,"x_max":0,"o":"m 115 472 b 268 572 129 472 247 558 l 268 413 b 288 393 268 400 275 393 b 307 413 300 393 307 400 l 307 579 b 457 481 329 564 440 481 b 476 500 469 481 476 488 b 468 517 476 507 474 513 l 326 611 l 468 707 b 476 724 474 711 476 717 b 457 743 476 736 469 743 b 307 644 440 743 329 660 l 307 811 b 288 831 307 824 300 831 b 268 811 275 831 268 824 l 268 651 b 115 751 247 665 129 751 b 96 732 103 751 96 744 b 104 715 96 725 99 719 l 258 611 l 104 508 b 96 492 99 504 96 499 b 115 472 96 479 103 472 z "},"Ç":{"ha":668,"x_min":0,"x_max":0,"o":"m 343 -210 b 361 -231 343 -221 351 -231 b 482 -107 415 -231 482 -161 b 432 -51 482 -75 464 -51 b 379 -67 411 -51 394 -57 b 389 -15 381 -50 388 -31 b 569 115 467 -6 526 50 b 606 189 578 128 606 178 b 586 208 606 199 596 208 b 568 196 578 208 572 204 b 364 22 526 113 467 22 b 115 424 185 22 115 276 b 364 826 115 572 186 826 b 568 653 467 826 526 736 b 586 640 572 644 578 640 b 606 660 596 640 606 649 b 569 733 606 671 578 721 b 364 865 524 804 453 865 b 76 424 160 865 76 593 b 347 -15 76 257 154 0 b 333 -103 342 -43 333 -82 b 353 -124 333 -114 342 -124 b 431 -90 365 -124 403 -90 b 443 -107 442 -90 443 -97 b 361 -192 443 -144 394 -187 b 343 -210 349 -193 343 -200 z "},"È":{"ha":594,"x_min":0,"x_max":0,"o":"m 513 -4 b 532 15 524 -4 532 6 b 513 35 532 28 525 35 l 157 35 l 157 435 l 389 435 b 408 454 401 435 408 442 b 389 474 408 464 400 474 l 157 474 l 157 810 l 513 810 b 532 829 525 810 532 817 b 513 849 532 839 524 849 l 138 849 b 118 829 126 849 118 839 l 118 15 b 138 -4 118 6 126 -4 z m 268 1038 b 249 1018 256 1038 249 1031 b 254 1004 249 1013 250 1008 l 363 894 b 376 889 367 890 371 889 b 396 908 389 889 396 896 b 390 922 396 913 394 917 l 282 1032 b 268 1038 278 1036 274 1038 z "},"É":{"ha":594,"x_min":0,"x_max":0,"o":"m 513 -4 b 532 15 524 -4 532 6 b 513 35 532 28 525 35 l 157 35 l 157 435 l 389 435 b 408 454 401 435 408 442 b 389 474 408 464 400 474 l 157 474 l 157 810 l 513 810 b 532 829 525 810 532 817 b 513 849 532 839 524 849 l 138 849 b 118 829 126 849 118 839 l 118 15 b 138 -4 118 6 126 -4 z m 271 907 b 290 888 271 897 279 888 b 304 894 294 888 300 890 l 424 1001 b 429 1014 428 1006 429 1010 b 410 1033 429 1025 419 1033 b 396 1028 403 1033 399 1032 l 276 921 b 271 907 272 918 271 914 z "},"Ê":{"ha":594,"x_min":0,"x_max":0,"o":"m 513 -4 b 532 15 524 -4 532 6 b 513 35 532 28 525 35 l 157 35 l 157 435 l 389 435 b 408 454 401 435 408 442 b 389 474 408 464 400 474 l 157 474 l 157 810 l 513 810 b 532 829 525 810 532 817 b 513 849 532 839 524 849 l 138 849 b 118 829 126 849 118 839 l 118 15 b 138 -4 118 6 126 -4 z m 400 899 b 419 918 410 899 419 908 b 340 1029 419 933 351 1010 b 322 1038 336 1035 329 1038 b 306 1029 315 1038 310 1035 b 215 918 294 1010 215 933 b 235 899 215 908 224 899 b 251 908 242 899 247 901 l 322 985 l 383 908 b 400 899 388 901 393 899 z "},"Ë":{"ha":594,"x_min":0,"x_max":0,"o":"m 513 -4 b 532 15 524 -4 532 6 b 513 35 532 28 525 35 l 157 35 l 157 435 l 389 435 b 408 454 401 435 408 442 b 389 474 408 464 400 474 l 157 474 l 157 810 l 513 810 b 532 829 525 810 532 817 b 513 849 532 839 524 849 l 138 849 b 118 829 126 849 118 839 l 118 15 b 138 -4 118 6 126 -4 z m 261 988 b 229 956 243 988 229 972 b 261 924 229 938 243 924 b 293 956 278 924 293 938 b 261 988 293 972 278 988 z m 422 956 b 390 988 422 972 408 988 b 358 956 374 988 358 972 b 390 924 358 938 374 924 b 422 956 408 924 422 938 z "},"Ì":{"ha":428,"x_min":0,"x_max":0,"o":"m 118 24 b 138 4 118 14 126 4 l 290 4 b 310 24 300 4 310 14 b 290 43 310 35 300 43 l 233 43 l 233 800 l 290 800 b 310 819 300 800 310 808 b 290 839 310 829 300 839 l 138 839 b 118 819 126 839 118 829 b 138 800 118 807 125 800 l 194 800 l 194 43 l 138 43 b 118 24 125 43 118 36 z m 161 1038 b 142 1018 149 1038 142 1031 b 147 1004 142 1013 143 1008 l 258 894 b 272 889 263 890 267 889 b 292 908 285 889 292 896 b 286 922 292 913 290 917 l 175 1032 b 161 1038 171 1036 167 1038 z "},"Í":{"ha":428,"x_min":0,"x_max":0,"o":"m 118 24 b 138 4 118 14 126 4 l 290 4 b 310 24 300 4 310 14 b 290 43 310 35 300 43 l 233 43 l 233 800 l 290 800 b 310 819 300 800 310 808 b 290 839 310 829 300 839 l 138 839 b 118 819 126 839 118 829 b 138 800 118 807 125 800 l 194 800 l 194 43 l 138 43 b 118 24 125 43 118 36 z m 125 907 b 144 888 125 897 133 888 b 158 894 149 888 154 890 l 269 1007 b 275 1019 274 1011 275 1015 b 256 1039 275 1031 265 1039 b 242 1033 249 1039 244 1038 l 131 921 b 125 907 126 918 125 914 z "},"Î":{"ha":440,"x_min":0,"x_max":0,"o":"m 125 24 b 144 4 125 14 133 4 l 297 4 b 317 24 307 4 317 14 b 297 43 317 35 307 43 l 240 43 l 240 800 l 297 800 b 317 819 307 800 317 808 b 297 839 317 829 307 839 l 144 839 b 125 819 133 839 125 829 b 144 800 125 807 132 800 l 201 800 l 201 43 l 144 43 b 125 24 132 43 125 36 z m 303 885 b 322 904 313 885 322 894 b 238 1025 322 919 249 1006 b 219 1033 233 1031 226 1033 b 203 1025 213 1033 207 1031 b 118 904 192 1006 118 919 b 138 885 118 894 126 885 b 154 894 144 885 150 888 l 219 981 l 286 894 b 303 885 290 888 296 885 z "},"Ï":{"ha":435,"x_min":0,"x_max":0,"o":"m 125 24 b 144 4 125 14 133 4 l 297 4 b 317 24 307 4 317 14 b 297 43 317 35 307 43 l 240 43 l 240 800 l 297 800 b 317 819 307 800 317 808 b 297 839 317 829 307 839 l 144 839 b 125 819 133 839 125 829 b 144 800 125 807 132 800 l 201 800 l 201 43 l 144 43 b 125 24 132 43 125 36 z m 150 974 b 118 942 132 974 118 958 b 150 910 118 924 132 910 b 182 942 167 910 182 924 b 150 974 182 958 167 974 z m 311 942 b 279 974 311 958 297 974 b 247 942 263 974 247 958 b 279 910 247 924 263 910 b 311 942 297 910 311 924 z "},"Ð":{"ha":736,"x_min":0,"x_max":0,"o":"m 660 419 b 390 846 660 535 604 846 l 190 846 b 169 825 181 846 169 836 l 169 471 b 142 472 163 471 153 472 b 104 451 122 472 104 468 b 142 431 104 433 122 431 b 169 432 153 431 163 432 l 169 10 b 189 -10 169 0 179 -10 b 197 -7 190 -10 193 -8 l 390 -7 b 660 419 603 -7 660 299 z m 208 471 l 208 807 l 390 807 b 621 419 579 807 621 517 b 390 32 621 321 579 32 l 208 32 l 208 432 l 363 432 b 382 451 374 432 382 442 b 363 471 382 464 375 471 z "},"Ñ":{"ha":681,"x_min":0,"x_max":0,"o":"m 563 833 b 543 853 563 846 556 853 b 524 833 531 853 524 846 l 524 97 l 156 839 b 138 850 151 846 144 850 b 118 831 126 850 118 840 l 118 11 b 138 -8 118 -1 125 -8 b 157 11 150 -8 157 -1 l 157 747 l 526 6 b 543 -6 529 -1 535 -6 b 563 14 554 -6 563 4 z m 215 910 b 235 890 215 900 224 890 b 289 988 271 890 242 988 b 408 886 326 988 342 886 b 479 1007 469 886 479 961 b 460 1026 479 1018 469 1026 b 411 925 422 1026 454 925 b 290 1026 368 925 357 1026 b 215 910 231 1026 215 956 z "},"Ò":{"ha":728,"x_min":0,"x_max":0,"o":"m 364 864 b 76 424 161 864 76 594 b 364 -18 76 253 161 -18 b 651 424 567 -18 651 253 b 364 864 651 594 567 864 z m 364 21 b 115 424 186 21 115 274 b 364 825 115 571 185 825 b 613 424 543 825 613 571 b 364 21 613 274 540 21 z m 281 1032 b 261 1013 268 1032 261 1025 b 267 999 261 1007 263 1003 l 342 908 b 356 903 346 904 350 903 b 375 922 368 903 375 910 b 369 936 375 926 374 931 l 294 1026 b 281 1032 290 1031 286 1032 z "},"Ó":{"ha":728,"x_min":0,"x_max":0,"o":"m 364 864 b 76 424 161 864 76 594 b 364 -18 76 253 161 -18 b 651 424 567 -18 651 253 b 364 864 651 594 567 864 z m 364 21 b 115 424 186 21 115 274 b 364 825 115 571 185 825 b 613 424 543 825 613 571 b 364 21 613 274 540 21 z m 292 907 b 311 888 292 897 300 888 b 325 894 315 888 321 890 l 442 1007 b 447 1019 446 1011 447 1015 b 428 1039 447 1031 438 1039 b 414 1033 421 1039 417 1038 l 297 921 b 292 907 293 918 292 914 z "},"Ô":{"ha":728,"x_min":0,"x_max":0,"o":"m 364 864 b 76 424 161 864 76 594 b 364 -18 76 253 161 -18 b 651 424 567 -18 651 253 b 364 864 651 594 567 864 z m 364 21 b 115 424 186 21 115 274 b 364 825 115 571 185 825 b 613 424 543 825 613 571 b 364 21 613 274 540 21 z m 449 885 b 468 904 458 885 468 894 b 383 1022 468 919 394 1003 b 365 1031 379 1028 372 1031 b 349 1022 358 1031 353 1028 b 264 904 338 1003 264 919 b 283 885 264 894 272 885 b 300 894 290 885 296 888 l 365 978 l 432 894 b 449 885 436 888 442 885 z "},"Õ":{"ha":728,"x_min":0,"x_max":0,"o":"m 364 864 b 76 424 161 864 76 594 b 364 -18 76 253 161 -18 b 651 424 567 -18 651 253 b 364 864 651 594 567 864 z m 364 21 b 115 424 186 21 115 274 b 364 825 115 571 185 825 b 613 424 543 825 613 571 b 364 21 613 274 540 21 z m 222 924 b 242 904 222 914 231 904 b 296 1001 278 904 249 1001 b 415 900 333 1001 349 900 b 486 1021 476 900 486 975 b 467 1040 486 1032 476 1040 b 418 939 429 1040 461 939 b 297 1040 375 939 364 1040 b 222 924 238 1040 222 969 z "},"Ö":{"ha":728,"x_min":0,"x_max":0,"o":"m 364 864 b 76 424 161 864 76 594 b 364 -18 76 253 161 -18 b 651 424 567 -18 651 253 b 364 864 651 594 567 864 z m 364 21 b 115 424 186 21 115 274 b 364 825 115 571 185 825 b 613 424 543 825 613 571 b 364 21 613 274 540 21 z m 296 974 b 264 942 278 974 264 958 b 296 910 264 924 278 910 b 328 942 313 910 328 924 b 296 974 328 958 313 974 z m 457 942 b 425 974 457 958 443 974 b 393 942 408 974 393 958 b 425 910 393 924 408 910 b 457 942 443 910 457 924 z "},"×":{"ha":497,"x_min":0,"x_max":0,"o":"m 251 419 l 375 296 b 388 290 378 292 383 290 b 408 308 399 290 408 301 b 401 324 408 314 406 318 l 279 446 l 401 569 b 408 582 406 572 408 578 b 388 603 408 590 400 603 b 375 597 383 603 378 600 l 251 474 l 129 597 b 114 603 124 601 119 603 b 94 582 104 603 94 592 b 101 569 94 578 97 574 l 225 446 l 101 324 b 94 308 97 318 94 314 b 114 289 94 300 106 289 b 129 296 119 289 124 292 z "},"Ø":{"ha":728,"x_min":0,"x_max":0,"o":"m 242 -17 b 264 8 257 -17 258 -8 b 364 -18 296 -7 326 -18 b 651 424 567 -18 651 253 b 503 810 651 556 607 721 b 506 819 504 815 506 819 b 486 839 504 832 497 839 b 471 832 481 839 475 836 b 364 864 439 853 401 864 b 76 424 161 864 76 594 b 229 32 76 289 119 119 b 222 3 225 14 222 4 b 242 -17 222 -10 229 -17 z m 115 424 b 364 825 115 571 185 825 b 457 796 396 825 428 815 b 458 794 457 794 457 794 b 242 74 419 674 293 243 b 115 424 150 154 115 307 z m 364 21 b 275 47 332 21 303 29 b 492 768 319 199 453 624 b 613 424 576 683 613 536 b 364 21 613 274 540 21 z "},"Ù":{"ha":746,"x_min":0,"x_max":0,"o":"m 608 854 b 589 835 599 854 589 844 l 589 221 b 374 22 589 89 500 22 b 157 221 251 22 157 90 l 157 835 b 138 854 157 844 149 854 b 118 835 126 854 118 844 l 118 221 b 374 -17 118 69 228 -17 b 628 221 522 -17 628 67 l 628 835 b 608 854 628 844 619 854 z m 290 1042 b 271 1022 278 1042 271 1035 b 276 1008 271 1017 272 1013 l 404 881 b 418 875 408 876 413 875 b 438 894 431 875 438 882 b 432 908 438 899 436 903 l 304 1036 b 290 1042 300 1040 296 1042 z "},"Ú":{"ha":746,"x_min":0,"x_max":0,"o":"m 608 854 b 589 835 599 854 589 844 l 589 221 b 374 22 589 89 500 22 b 157 221 251 22 157 90 l 157 835 b 138 854 157 844 149 854 b 118 835 126 854 118 844 l 118 221 b 374 -17 118 69 228 -17 b 628 221 522 -17 628 67 l 628 835 b 608 854 628 844 619 854 z m 326 907 b 346 888 326 897 335 888 b 360 894 350 888 356 890 l 465 1001 b 471 1014 469 1006 471 1010 b 451 1033 471 1025 461 1033 b 438 1028 444 1033 440 1032 l 332 921 b 326 907 328 918 326 914 z "},"Û":{"ha":746,"x_min":0,"x_max":0,"o":"m 608 854 b 589 835 599 854 589 844 l 589 221 b 374 22 589 89 500 22 b 157 221 251 22 157 90 l 157 835 b 138 854 157 844 149 854 b 118 835 126 854 118 844 l 118 221 b 374 -17 118 69 228 -17 b 628 221 522 -17 628 67 l 628 835 b 608 854 628 844 619 854 z m 456 881 b 475 900 465 881 475 890 b 390 1035 475 915 401 1015 b 372 1043 386 1040 379 1043 b 356 1035 365 1043 360 1040 b 271 900 344 1015 271 915 b 290 881 271 890 279 881 b 307 890 297 881 303 883 l 372 990 l 439 890 b 456 881 443 883 449 881 z "},"Ü":{"ha":746,"x_min":0,"x_max":0,"o":"m 608 854 b 589 835 599 854 589 844 l 589 221 b 374 22 589 89 500 22 b 157 221 251 22 157 90 l 157 835 b 138 854 157 844 149 854 b 118 835 126 854 118 844 l 118 221 b 374 -17 118 69 228 -17 b 628 221 522 -17 628 67 l 628 835 b 608 854 628 844 619 854 z m 303 974 b 271 942 285 974 271 958 b 303 910 271 924 285 910 b 335 942 319 910 335 924 b 303 974 335 958 319 974 z m 464 942 b 432 974 464 958 450 974 b 400 942 415 974 400 958 b 432 910 400 924 415 910 b 464 942 450 910 464 924 z "},"Ý":{"ha":569,"x_min":0,"x_max":0,"o":"m 508 849 b 492 838 500 849 494 844 l 285 449 l 78 838 b 61 849 75 844 69 849 b 42 829 50 849 42 839 b 265 403 42 815 244 440 l 265 14 b 285 -6 265 1 272 -6 b 304 14 297 -6 304 1 l 304 401 b 528 829 326 440 528 815 b 508 849 528 839 519 849 z m 229 907 b 249 888 229 897 238 888 b 263 894 253 888 258 890 l 374 1006 b 379 1018 378 1010 379 1014 b 360 1038 379 1029 369 1038 b 346 1032 353 1038 349 1036 l 235 921 b 229 907 231 918 229 914 z "},"Þ":{"ha":606,"x_min":0,"x_max":0,"o":"m 157 660 l 157 829 b 138 849 157 842 150 849 b 118 829 125 849 118 842 l 118 11 b 138 -8 118 -1 125 -8 b 157 11 150 -8 157 -1 l 157 181 l 324 181 b 564 419 457 181 564 288 b 324 660 564 553 457 660 z m 525 419 b 324 219 525 310 433 219 l 157 219 l 157 619 l 324 619 b 525 419 433 619 525 529 z "},"ß":{"ha":608,"x_min":0,"x_max":0,"o":"m 267 803 b 410 657 346 803 410 736 b 304 465 410 560 304 514 b 496 247 304 422 442 306 b 535 153 522 218 535 188 b 404 14 535 79 479 14 b 218 115 304 14 238 115 b 199 96 208 115 199 106 b 204 82 199 92 200 88 b 404 -25 253 26 331 -25 b 574 153 501 -25 574 58 b 525 274 574 199 557 239 b 343 464 490 313 347 438 b 449 657 343 479 449 554 b 267 842 449 757 367 842 b 118 713 185 842 118 800 l 118 10 b 138 -10 118 0 128 -10 b 157 10 149 -10 157 0 l 157 713 b 267 803 157 778 207 803 z "},"à":{"ha":617,"x_min":0,"x_max":0,"o":"m 500 457 b 481 438 489 457 481 447 l 481 344 b 286 465 442 415 369 465 b 63 224 157 465 63 350 b 286 -18 63 97 157 -18 b 481 103 369 -18 442 32 l 481 14 b 500 -6 481 1 488 -6 b 519 14 513 -6 519 1 l 519 438 b 500 457 519 447 511 457 z m 286 21 b 101 224 179 21 101 119 b 286 426 101 328 179 426 b 471 224 397 426 471 328 b 286 21 471 119 397 21 z m 228 667 b 208 647 215 667 208 660 b 214 633 208 642 210 638 l 342 506 b 356 500 346 501 350 500 b 375 519 368 500 375 507 b 369 533 375 524 374 528 l 242 661 b 228 667 238 665 233 667 z "},"á":{"ha":617,"x_min":0,"x_max":0,"o":"m 500 457 b 481 438 489 457 481 447 l 481 344 b 286 465 442 415 369 465 b 63 224 157 465 63 350 b 286 -18 63 97 157 -18 b 481 103 369 -18 442 32 l 481 14 b 500 -6 481 1 488 -6 b 519 14 513 -6 519 1 l 519 438 b 500 457 519 447 511 457 z m 286 21 b 101 224 179 21 101 119 b 286 426 101 328 179 426 b 471 224 397 426 471 328 b 286 21 471 119 397 21 z m 250 518 b 269 499 250 508 258 499 b 283 506 274 499 279 501 l 413 635 b 418 647 417 639 418 643 b 399 667 418 658 408 667 b 385 661 392 667 388 665 l 256 532 b 250 518 251 529 250 525 z "},"â":{"ha":617,"x_min":0,"x_max":0,"o":"m 500 457 b 481 438 489 457 481 447 l 481 344 b 286 465 442 415 369 465 b 63 224 157 465 63 350 b 286 -18 63 97 157 -18 b 481 103 369 -18 442 32 l 481 14 b 500 -6 481 1 488 -6 b 519 14 513 -6 519 1 l 519 438 b 500 457 519 447 511 457 z m 286 21 b 101 224 179 21 101 119 b 286 426 101 328 179 426 b 471 224 397 426 471 328 b 286 21 471 119 397 21 z m 379 496 b 399 515 389 496 399 506 b 314 650 399 531 325 631 b 296 658 310 656 303 658 b 279 650 289 658 283 656 b 194 515 268 631 194 531 b 214 496 194 506 203 496 b 231 506 221 496 226 499 l 296 606 l 363 506 b 379 496 367 499 372 496 z "},"ã":{"ha":617,"x_min":0,"x_max":0,"o":"m 500 457 b 481 438 489 457 481 447 l 481 344 b 286 465 442 415 369 465 b 63 224 157 465 63 350 b 286 -18 63 97 157 -18 b 481 103 369 -18 442 32 l 481 14 b 500 -6 481 1 488 -6 b 519 14 513 -6 519 1 l 519 438 b 500 457 519 447 511 457 z m 286 21 b 101 224 179 21 101 119 b 286 426 101 328 179 426 b 471 224 397 426 471 328 b 286 21 471 119 397 21 z m 153 535 b 172 515 153 525 161 515 b 226 613 208 515 179 613 b 346 511 264 613 279 511 b 417 632 407 511 417 586 b 397 651 417 643 407 651 b 349 550 360 651 392 550 b 228 651 306 550 294 651 b 153 535 168 651 153 581 z "},"ä":{"ha":617,"x_min":0,"x_max":0,"o":"m 500 457 b 481 438 489 457 481 447 l 481 344 b 286 465 442 415 369 465 b 63 224 157 465 63 350 b 286 -18 63 97 157 -18 b 481 103 369 -18 442 32 l 481 14 b 500 -6 481 1 488 -6 b 519 14 513 -6 519 1 l 519 438 b 500 457 519 447 511 457 z m 286 21 b 101 224 179 21 101 119 b 286 426 101 328 179 426 b 471 224 397 426 471 328 b 286 21 471 119 397 21 z m 213 585 b 181 553 194 585 181 569 b 213 521 181 535 194 521 b 244 553 229 521 244 535 b 213 585 244 569 229 585 z m 374 553 b 342 585 374 569 360 585 b 310 553 325 585 310 569 b 342 521 310 535 325 521 b 374 553 360 521 374 535 z "},"å":{"ha":617,"x_min":0,"x_max":0,"o":"m 296 696 b 167 567 224 696 167 638 b 226 457 167 521 189 479 b 63 224 128 428 63 328 b 286 -18 63 97 157 -18 b 481 103 369 -18 442 32 l 481 14 b 500 -6 481 1 488 -6 b 519 14 513 -6 519 1 l 519 438 b 500 457 519 447 511 457 b 481 438 489 457 481 447 l 481 344 b 357 453 453 394 411 432 b 424 567 396 475 424 518 b 296 696 424 638 368 696 z m 286 21 b 101 224 179 21 101 119 b 286 426 101 328 179 426 b 471 224 397 426 471 328 b 286 21 471 119 397 21 z m 296 467 b 196 567 240 467 196 513 b 296 667 196 621 240 667 b 394 567 350 667 394 621 b 296 467 394 513 350 467 z "},"æ":{"ha":983,"x_min":0,"x_max":0,"o":"m 699 463 b 513 357 621 463 553 422 l 513 433 b 493 453 513 443 504 453 b 474 433 483 453 474 443 l 474 350 b 286 463 435 418 365 463 b 63 222 157 463 63 347 b 286 -19 63 96 157 -19 b 474 93 365 -19 435 26 l 474 11 b 493 -8 474 0 483 -8 b 513 11 506 -8 513 -1 l 513 88 b 699 -19 553 22 621 -19 b 890 82 775 -19 851 15 b 893 92 892 86 893 89 b 874 111 893 104 886 111 b 857 101 867 111 861 108 b 699 19 819 47 767 19 b 515 203 599 19 522 107 l 901 203 b 921 222 914 203 921 210 b 699 463 921 347 828 463 z m 286 19 b 101 222 175 19 101 118 b 286 424 101 325 179 424 b 471 222 393 424 471 325 b 286 19 471 118 393 19 z m 515 242 b 699 424 522 336 599 424 b 881 242 797 424 874 336 z "},"ç":{"ha":531,"x_min":0,"x_max":0,"o":"m 260 -210 b 278 -231 260 -221 268 -231 b 399 -107 332 -231 399 -161 b 349 -51 399 -75 381 -51 b 296 -67 328 -51 311 -57 b 304 -17 297 -51 303 -33 b 472 89 375 -11 435 29 b 476 100 475 93 476 96 b 456 119 476 111 467 119 b 438 107 447 119 442 115 b 286 21 410 56 346 21 b 101 224 179 21 101 119 b 286 426 101 328 179 426 b 439 338 351 426 407 392 b 454 331 443 333 449 331 b 474 350 467 331 474 338 b 446 394 474 361 453 385 b 286 465 403 439 347 465 b 63 224 157 465 63 350 b 264 -17 63 107 144 -6 b 250 -103 258 -44 250 -82 b 269 -124 250 -114 258 -124 b 347 -90 282 -124 319 -90 b 360 -107 358 -90 360 -97 b 278 -192 360 -144 311 -187 b 260 -210 265 -193 260 -200 z "},"è":{"ha":574,"x_min":0,"x_max":0,"o":"m 286 465 b 63 224 157 465 63 350 b 286 -18 63 97 157 -18 b 479 83 364 -18 440 15 b 482 93 481 88 482 90 b 463 113 482 106 475 113 b 446 103 456 113 450 110 b 286 21 408 49 354 21 b 103 204 183 21 114 108 l 490 204 b 511 224 501 204 511 213 b 286 465 511 350 417 465 z m 103 243 b 286 426 114 339 183 426 b 469 243 386 426 463 339 z m 172 667 b 153 647 160 667 153 660 b 158 633 153 642 154 638 l 286 506 b 300 500 290 501 294 500 b 319 519 313 500 319 507 b 314 533 319 524 318 528 l 186 661 b 172 667 182 665 178 667 z "},"é":{"ha":574,"x_min":0,"x_max":0,"o":"m 286 465 b 63 224 157 465 63 350 b 286 -18 63 97 157 -18 b 479 83 364 -18 440 15 b 482 93 481 88 482 90 b 463 113 482 106 475 113 b 446 103 456 113 450 110 b 286 21 408 49 354 21 b 103 204 183 21 114 108 l 490 204 b 511 224 501 204 511 213 b 286 465 511 350 417 465 z m 103 243 b 286 426 114 339 183 426 b 469 243 386 426 463 339 z m 208 518 b 228 499 208 508 217 499 b 242 506 232 499 238 501 l 371 635 b 376 647 375 639 376 643 b 357 667 376 658 367 667 b 343 661 350 667 346 665 l 214 532 b 208 518 210 529 208 525 z "},"ê":{"ha":574,"x_min":0,"x_max":0,"o":"m 286 465 b 63 224 157 465 63 350 b 286 -18 63 97 157 -18 b 479 83 364 -18 440 15 b 482 93 481 88 482 90 b 463 113 482 106 475 113 b 446 103 456 113 450 110 b 286 21 408 49 354 21 b 103 204 183 21 114 108 l 490 204 b 511 224 501 204 511 213 b 286 465 511 350 417 465 z m 103 243 b 286 426 114 339 183 426 b 469 243 386 426 463 339 z m 365 496 b 385 515 375 496 385 506 b 300 650 385 531 311 631 b 282 658 296 656 289 658 b 265 650 275 658 269 656 b 181 515 254 631 181 531 b 200 496 181 506 189 496 b 217 506 207 496 213 499 l 282 606 l 349 506 b 365 496 353 499 358 496 z "},"ë":{"ha":574,"x_min":0,"x_max":0,"o":"m 286 465 b 63 224 157 465 63 350 b 286 -18 63 97 157 -18 b 479 83 364 -18 440 15 b 482 93 481 88 482 90 b 463 113 482 106 475 113 b 446 103 456 113 450 110 b 286 21 408 49 354 21 b 103 204 183 21 114 108 l 490 204 b 511 224 501 204 511 213 b 286 465 511 350 417 465 z m 103 243 b 286 426 114 339 183 426 b 469 243 386 426 463 339 z m 213 585 b 181 553 194 585 181 569 b 213 521 181 535 194 521 b 244 553 229 521 244 535 b 213 585 244 569 229 585 z m 374 553 b 342 585 374 569 360 585 b 310 553 325 585 310 569 b 342 521 310 535 325 521 b 374 553 360 521 374 535 z "},"ì":{"ha":233,"x_min":0,"x_max":0,"o":"m 124 453 b 104 433 113 453 104 443 l 104 11 b 124 -8 104 1 113 -8 b 143 11 133 -8 143 1 l 143 433 b 124 453 143 443 133 453 z m 0 667 b -19 647 -12 667 -19 660 b -14 633 -19 642 -18 638 l 114 506 b 128 500 118 501 122 500 b 147 519 140 500 147 507 b 142 533 147 524 146 528 l 14 661 b 0 667 10 665 6 667 z "},"í":{"ha":233,"x_min":0,"x_max":0,"o":"m 117 453 b 97 433 106 453 97 443 l 97 11 b 117 -8 97 1 106 -8 b 136 11 126 -8 136 1 l 136 433 b 117 453 136 443 126 453 z m 99 518 b 118 499 99 508 107 499 b 132 506 122 499 128 501 l 261 635 b 267 647 265 639 267 643 b 247 667 267 658 257 667 b 233 661 240 667 236 665 l 104 532 b 99 518 100 529 99 525 z "},"î":{"ha":233,"x_min":0,"x_max":0,"o":"m 115 453 b 96 433 104 453 96 443 l 96 11 b 115 -8 96 1 104 -8 b 135 11 125 -8 135 1 l 135 433 b 115 453 135 443 125 453 z m 199 510 b 218 529 208 510 218 519 b 133 664 218 544 144 644 b 115 672 129 669 122 672 b 99 664 108 672 103 669 b 14 529 88 644 14 544 b 33 510 14 519 22 510 b 50 519 40 510 46 513 l 115 619 l 182 519 b 199 510 186 513 192 510 z "},"ï":{"ha":233,"x_min":0,"x_max":0,"o":"m 124 453 b 104 433 113 453 104 443 l 104 11 b 124 -8 104 1 113 -8 b 143 11 133 -8 143 1 l 143 433 b 124 453 143 443 133 453 z m 54 585 b 22 553 36 585 22 569 b 54 521 22 535 36 521 b 86 553 71 521 86 535 b 54 585 86 569 71 585 z m 215 553 b 183 585 215 569 201 585 b 151 553 167 585 151 569 b 183 521 151 535 167 521 b 215 553 201 521 215 535 z "},"ð":{"ha":640,"x_min":0,"x_max":0,"o":"m 544 296 b 399 753 544 451 517 642 b 467 824 413 764 467 808 b 447 843 467 833 458 843 b 369 779 433 843 381 790 b 172 846 311 824 246 846 b 153 826 161 846 153 836 b 172 807 153 815 160 808 l 211 804 b 340 753 257 801 300 781 b 232 649 324 739 232 664 b 251 629 232 636 239 629 b 369 728 267 629 351 714 b 504 358 467 635 497 486 b 319 463 464 421 397 463 b 96 222 190 463 96 347 b 319 -19 96 96 190 -19 b 543 222 449 -19 543 96 b 544 296 543 246 544 269 z m 319 19 b 135 222 213 19 135 118 b 319 424 135 325 213 424 b 504 228 425 424 504 328 b 319 19 504 121 433 19 z "},"ñ":{"ha":574,"x_min":0,"x_max":0,"o":"m 297 467 b 136 369 226 467 171 429 l 136 438 b 117 457 136 450 129 457 b 97 438 104 457 97 450 l 97 13 b 117 -7 97 0 104 -7 b 136 13 129 -7 136 0 l 136 207 b 297 428 136 324 181 428 b 438 261 390 428 438 346 l 438 14 b 457 -6 438 1 444 -6 b 476 14 467 -6 476 3 l 476 261 b 297 467 476 367 413 467 z m 153 535 b 172 515 153 525 161 515 b 226 613 208 515 179 613 b 346 511 264 613 279 511 b 417 632 407 511 417 586 b 397 651 417 643 407 651 b 349 550 360 651 392 550 b 228 651 306 550 294 651 b 153 535 168 651 153 581 z "},"ò":{"ha":574,"x_min":0,"x_max":0,"o":"m 286 467 b 63 225 157 467 63 351 b 286 -17 63 99 157 -17 b 511 225 417 -17 511 99 b 286 467 511 351 417 467 z m 286 22 b 101 225 179 22 101 121 b 286 426 101 328 179 426 b 471 225 397 426 471 328 b 286 22 471 121 397 22 z m 158 667 b 139 647 146 667 139 660 b 144 633 139 642 140 638 l 272 506 b 286 500 276 501 281 500 b 306 519 299 500 306 507 b 300 533 306 524 304 528 l 172 661 b 158 667 168 665 164 667 z "},"ó":{"ha":574,"x_min":0,"x_max":0,"o":"m 286 467 b 63 225 157 467 63 351 b 286 -17 63 99 157 -17 b 511 225 417 -17 511 99 b 286 467 511 351 417 467 z m 286 22 b 101 225 179 22 101 121 b 286 426 101 328 179 426 b 471 225 397 426 471 328 b 286 22 471 121 397 22 z m 264 518 b 283 499 264 508 272 499 b 297 506 288 499 293 501 l 426 635 b 432 647 431 639 432 643 b 413 667 432 658 422 667 b 399 661 406 667 401 665 l 269 532 b 264 518 265 529 264 525 z "},"ô":{"ha":574,"x_min":0,"x_max":0,"o":"m 286 467 b 63 225 157 467 63 351 b 286 -17 63 99 157 -17 b 511 225 417 -17 511 99 b 286 467 511 351 417 467 z m 286 22 b 101 225 179 22 101 121 b 286 426 101 328 179 426 b 471 225 397 426 471 328 b 286 22 471 121 397 22 z m 365 482 b 385 501 375 482 385 492 b 300 636 385 517 311 617 b 282 644 296 642 289 644 b 265 636 275 644 269 642 b 181 501 254 617 181 517 b 200 482 181 492 189 482 b 217 492 207 482 213 485 l 282 592 l 349 492 b 365 482 353 485 358 482 z "},"õ":{"ha":574,"x_min":0,"x_max":0,"o":"m 286 467 b 63 225 157 467 63 351 b 286 -17 63 99 157 -17 b 511 225 417 -17 511 99 b 286 467 511 351 417 467 z m 286 22 b 101 225 179 22 101 121 b 286 426 101 328 179 426 b 471 225 397 426 471 328 b 286 22 471 121 397 22 z m 139 521 b 158 501 139 511 147 501 b 213 599 194 501 165 599 b 332 497 250 599 265 497 b 403 618 393 497 403 572 b 383 638 403 629 393 638 b 335 536 346 638 378 536 b 214 638 292 536 281 638 b 139 521 154 638 139 567 z "},"ö":{"ha":574,"x_min":0,"x_max":0,"o":"m 286 467 b 63 225 157 467 63 351 b 286 -17 63 99 157 -17 b 511 225 417 -17 511 99 b 286 467 511 351 417 467 z m 286 22 b 101 225 179 22 101 121 b 286 426 101 328 179 426 b 471 225 397 426 471 328 b 286 22 471 121 397 22 z m 213 585 b 181 553 194 585 181 569 b 213 521 181 535 194 521 b 244 553 229 521 244 535 b 213 585 244 569 229 585 z m 374 553 b 342 585 374 569 360 585 b 310 553 325 585 310 569 b 342 521 310 535 325 521 b 374 553 360 521 374 535 z "},"÷":{"ha":504,"x_min":0,"x_max":0,"o":"m 390 431 b 408 450 400 431 408 440 b 390 469 408 463 403 469 l 115 469 b 96 450 103 469 96 463 b 115 431 96 440 104 431 z m 253 401 b 221 369 235 401 221 386 b 253 338 221 351 235 338 b 285 369 269 338 285 351 b 253 401 285 386 269 401 z m 253 506 b 285 538 269 506 285 519 b 253 569 285 554 269 569 b 221 538 235 569 221 554 b 253 506 221 519 235 506 z "},"ø":{"ha":674,"x_min":0,"x_max":0,"o":"m 147 -12 b 196 35 163 -12 185 24 b 333 -17 235 3 283 -17 b 557 225 463 -17 557 99 b 500 386 557 285 538 340 b 539 439 510 396 539 424 b 519 458 539 451 532 458 b 472 414 504 458 482 425 b 333 467 433 447 385 467 b 110 225 204 467 110 351 b 168 63 110 163 129 108 b 128 7 160 50 128 22 b 147 -12 128 -3 136 -12 z m 518 225 b 333 22 518 121 444 22 b 222 64 292 22 254 36 l 474 356 b 518 225 503 318 518 274 z m 149 225 b 333 428 149 329 226 428 b 447 385 376 428 415 411 l 194 92 b 149 225 163 129 149 176 z "},"ù":{"ha":574,"x_min":0,"x_max":0,"o":"m 457 453 b 438 433 446 453 438 443 l 438 275 b 276 18 438 142 406 18 b 136 185 183 18 136 101 l 136 433 b 117 453 136 443 128 453 b 97 433 106 453 97 443 l 97 185 b 276 -21 97 79 161 -21 b 438 89 349 -21 406 24 l 438 8 b 457 -11 438 -4 444 -11 b 476 8 467 -11 476 -3 l 476 433 b 457 453 476 443 467 453 z m 207 625 b 188 606 194 625 188 618 b 193 592 188 600 189 596 l 321 464 b 335 458 325 460 329 458 b 354 478 347 458 354 465 b 349 492 354 482 353 486 l 221 619 b 207 625 217 624 213 625 z "},"ú":{"ha":574,"x_min":0,"x_max":0,"o":"m 457 453 b 438 433 446 453 438 443 l 438 275 b 276 18 438 142 406 18 b 136 185 183 18 136 101 l 136 433 b 117 453 136 443 128 453 b 97 433 106 453 97 443 l 97 185 b 276 -21 97 79 161 -21 b 438 89 349 -21 406 24 l 438 8 b 457 -11 438 -4 444 -11 b 476 8 467 -11 476 -3 l 476 433 b 457 453 476 443 467 453 z m 229 504 b 249 485 229 494 238 485 b 263 492 253 485 258 488 l 392 621 b 397 633 396 625 397 629 b 378 653 397 644 388 653 b 364 647 371 653 367 651 l 235 518 b 229 504 231 515 229 511 z "},"û":{"ha":574,"x_min":0,"x_max":0,"o":"m 457 453 b 438 433 446 453 438 443 l 438 275 b 276 18 438 142 406 18 b 136 185 183 18 136 101 l 136 433 b 117 453 136 443 128 453 b 97 433 106 453 97 443 l 97 185 b 276 -21 97 79 161 -21 b 438 89 349 -21 406 24 l 438 8 b 457 -11 438 -4 444 -11 b 476 8 467 -11 476 -3 l 476 433 b 457 453 476 443 467 453 z m 372 482 b 392 501 382 482 392 492 b 307 636 392 517 318 617 b 289 644 303 642 296 644 b 272 636 282 644 276 642 b 188 501 261 617 188 517 b 207 482 188 492 196 482 b 224 492 214 482 219 485 l 289 592 l 356 492 b 372 482 360 485 365 482 z "},"ü":{"ha":574,"x_min":0,"x_max":0,"o":"m 457 453 b 438 433 446 453 438 443 l 438 275 b 276 18 438 142 406 18 b 136 185 183 18 136 101 l 136 433 b 117 453 136 443 128 453 b 97 433 106 453 97 443 l 97 185 b 276 -21 97 79 161 -21 b 438 89 349 -21 406 24 l 438 8 b 457 -11 438 -4 444 -11 b 476 8 467 -11 476 -3 l 476 433 b 457 453 476 443 467 453 z m 219 585 b 188 553 201 585 188 569 b 219 521 188 535 201 521 b 251 553 236 521 251 535 b 219 585 251 569 236 585 z m 381 553 b 349 585 381 569 367 585 b 317 553 332 585 317 569 b 349 521 317 535 332 521 b 381 553 367 521 381 535 z "},"ý":{"ha":472,"x_min":0,"x_max":0,"o":"m 411 457 b 393 444 401 457 396 453 l 240 53 l 79 446 b 61 457 76 453 71 457 b 42 438 49 457 42 450 b 221 3 42 431 215 8 b 121 -258 210 -24 121 -247 b 140 -278 121 -268 131 -278 b 158 -265 149 -278 154 -274 b 431 438 181 -212 431 428 b 411 457 431 450 424 457 z m 188 504 b 207 485 188 494 196 485 b 221 492 211 485 217 488 l 350 621 b 356 633 354 625 356 629 b 336 653 356 644 346 653 b 322 647 329 653 325 651 l 193 518 b 188 504 189 515 188 511 z "},"þ":{"ha":617,"x_min":0,"x_max":0,"o":"m 117 838 b 97 818 104 838 97 831 l 97 -254 b 117 -274 97 -264 106 -274 b 136 -254 128 -274 136 -264 l 136 103 b 331 -19 175 31 247 -19 b 554 222 460 -19 554 96 b 331 464 554 349 460 464 b 136 343 247 464 175 415 l 136 818 b 117 838 136 831 129 838 z m 331 425 b 515 222 438 425 515 326 b 331 19 515 119 438 19 b 144 222 221 19 144 119 b 331 425 144 326 221 425 z "},"ÿ":{"ha":472,"x_min":0,"x_max":0,"o":"m 411 457 b 393 444 401 457 396 453 l 240 53 l 79 446 b 61 457 76 453 71 457 b 42 438 49 457 42 450 b 221 3 42 431 215 8 b 121 -258 210 -24 121 -247 b 140 -278 121 -268 131 -278 b 158 -265 149 -278 154 -274 b 431 438 181 -212 431 428 b 411 457 431 450 424 457 z m 164 585 b 132 553 146 585 132 569 b 164 521 132 535 146 521 b 196 553 181 521 196 535 b 164 585 196 569 181 585 z m 325 553 b 293 585 325 569 311 585 b 261 553 276 585 261 569 b 293 521 261 535 276 521 b 325 553 311 521 325 535 z "},"ı":{"ha":256,"x_min":0,"x_max":0,"o":"m 128 453 b 108 433 117 453 108 443 l 108 11 b 128 -8 108 1 117 -8 b 147 11 138 -8 147 1 l 147 433 b 128 453 147 443 138 453 z "},"Ł":{"ha":572,"x_min":0,"x_max":0,"o":"m 115 472 b 268 572 129 472 247 558 l 268 413 b 288 393 268 400 275 393 b 307 413 300 393 307 400 l 307 579 b 457 481 329 564 440 481 b 476 500 469 481 476 488 b 468 517 476 507 474 513 l 326 611 l 468 707 b 476 724 474 711 476 717 b 457 743 476 736 469 743 b 307 644 440 743 329 660 l 307 811 b 288 831 307 824 300 831 b 268 811 275 831 268 824 l 268 651 b 115 751 247 665 129 751 b 96 732 103 751 96 744 b 104 715 96 725 99 719 l 258 611 l 104 508 b 96 492 99 504 96 499 b 115 472 96 479 103 472 z "},"ł":{"ha":572,"x_min":0,"x_max":0,"o":"m 115 472 b 268 572 129 472 247 558 l 268 413 b 288 393 268 400 275 393 b 307 413 300 393 307 400 l 307 579 b 457 481 329 564 440 481 b 476 500 469 481 476 488 b 468 517 476 507 474 513 l 326 611 l 468 707 b 476 724 474 711 476 717 b 457 743 476 736 469 743 b 307 644 440 743 329 660 l 307 811 b 288 831 307 824 300 831 b 268 811 275 831 268 824 l 268 651 b 115 751 247 665 129 751 b 96 732 103 751 96 744 b 104 715 96 725 99 719 l 258 611 l 104 508 b 96 492 99 504 96 499 b 115 472 96 479 103 472 z "},"Œ":{"ha":1085,"x_min":0,"x_max":0,"o":"m 76 436 b 363 -4 76 267 161 -4 b 610 211 486 -4 568 107 l 610 15 b 629 -4 610 6 618 -4 l 1003 -4 b 1022 15 1013 -4 1022 6 b 1003 35 1022 26 1013 35 l 649 35 l 647 367 b 649 433 647 389 649 411 l 879 433 b 899 453 892 433 899 440 b 879 472 899 463 890 472 l 649 472 l 649 807 l 1003 807 b 1022 826 1013 807 1022 815 b 1003 846 1022 836 1013 846 l 629 846 b 610 826 618 846 610 836 l 610 660 b 363 875 568 764 486 875 b 76 436 161 875 76 604 z m 363 836 b 606 518 513 836 589 640 b 610 401 611 479 610 440 b 363 35 610 267 524 35 b 115 436 185 35 115 286 b 363 836 115 585 185 836 z "},"œ":{"ha":978,"x_min":0,"x_max":0,"o":"m 867 111 b 850 101 860 111 854 108 b 692 21 813 47 760 21 b 510 203 592 21 517 108 l 896 203 b 915 222 906 203 915 213 b 692 464 915 349 821 464 b 489 321 599 464 524 404 b 286 463 451 404 376 463 b 63 221 157 463 63 347 b 286 -19 63 96 157 -19 b 489 122 376 -19 454 39 b 692 -18 524 39 601 -18 b 883 82 769 -18 844 15 b 886 92 885 85 886 88 b 867 111 886 104 879 111 z m 692 425 b 875 242 793 425 864 338 l 510 242 b 692 425 517 338 592 425 z m 286 19 b 101 221 175 19 101 117 b 286 424 101 325 175 424 b 468 222 393 424 468 325 b 286 19 468 118 397 19 z "},"Š":{"ha":669,"x_min":0,"x_max":0,"o":"m 129 651 b 313 822 129 751 217 822 l 319 821 b 496 688 410 819 471 776 b 522 614 503 661 494 614 b 543 633 533 614 543 622 b 313 861 543 765 446 861 b 90 651 194 861 90 772 b 540 206 90 374 540 481 b 342 18 540 89 456 18 b 132 192 231 18 146 89 l 129 228 b 110 247 128 240 121 247 b 90 228 100 247 90 239 b 343 -21 90 79 194 -21 b 579 206 478 -21 579 67 b 329 465 579 349 450 426 b 129 651 236 496 129 535 z m 318 893 b 335 901 326 893 332 896 b 413 1021 347 921 413 1003 b 393 1040 413 1032 403 1040 b 376 1032 385 1040 379 1038 l 318 947 l 254 1032 b 239 1040 251 1038 246 1040 b 219 1021 226 1040 219 1033 b 301 901 219 1004 290 919 b 318 893 306 896 311 893 z "},"š":{"ha":532,"x_min":0,"x_max":0,"o":"m 121 346 b 260 422 121 411 210 422 b 406 328 324 422 390 410 b 424 307 406 318 411 307 b 444 325 433 307 444 314 b 260 461 444 429 347 461 b 82 344 186 461 82 439 b 417 125 82 182 417 265 b 268 19 417 51 331 19 b 115 133 189 19 115 40 b 100 156 115 143 111 156 b 76 124 78 156 76 142 b 268 -19 76 18 176 -19 b 456 125 353 -19 456 26 b 121 346 456 304 121 226 z m 254 504 b 272 513 261 504 268 507 b 357 647 283 531 357 631 b 338 667 357 658 347 667 b 321 658 331 667 325 664 l 254 558 l 189 658 b 172 667 185 664 179 667 b 153 647 160 667 153 660 b 238 513 153 631 226 531 b 254 504 242 507 247 504 z "},"Ÿ":{"ha":569,"x_min":0,"x_max":0,"o":"m 508 849 b 492 838 500 849 494 844 l 285 449 l 78 838 b 61 849 75 844 69 849 b 42 829 50 849 42 839 b 265 403 42 815 244 440 l 265 14 b 285 -6 265 1 272 -6 b 304 14 297 -6 304 1 l 304 401 b 528 829 326 440 528 815 b 508 849 528 839 519 849 z m 219 932 b 188 900 201 932 188 917 b 219 868 188 882 201 868 b 251 900 236 868 251 882 b 219 932 251 917 236 932 z m 381 900 b 349 932 381 917 367 932 b 317 900 332 932 317 917 b 349 868 317 882 332 868 b 381 900 367 868 381 882 z "},"Ž":{"ha":635,"x_min":0,"x_max":0,"o":"m 565 818 b 546 838 565 831 558 838 l 104 838 b 85 818 92 838 85 831 b 104 799 85 808 93 799 l 513 799 b 69 26 475 739 69 40 b 89 7 69 14 76 7 l 532 7 b 551 26 544 7 551 14 b 532 46 551 36 543 46 l 122 46 b 565 818 160 106 565 804 z m 343 888 b 428 1022 354 906 428 1006 b 408 1042 428 1035 421 1042 b 392 1033 401 1042 396 1039 l 325 933 l 260 1033 b 243 1042 256 1039 250 1042 b 224 1022 231 1042 224 1035 b 308 888 224 1006 297 906 z "},"ž":{"ha":500,"x_min":0,"x_max":0,"o":"m 438 422 b 418 442 438 432 428 442 l 96 442 b 76 422 86 442 76 432 b 96 403 76 411 86 403 l 375 403 l 67 36 b 63 24 64 33 63 29 b 82 4 63 14 71 4 l 403 4 b 422 24 414 4 422 14 b 403 43 422 36 415 43 l 124 43 l 432 410 b 438 422 436 414 438 418 z m 254 504 b 272 513 261 504 268 507 b 357 647 283 531 357 631 b 338 667 357 658 347 667 b 321 658 331 667 325 664 l 254 558 l 189 658 b 172 667 185 664 179 667 b 153 647 160 667 153 660 b 238 513 153 631 226 531 b 254 504 242 507 247 504 z "},"ƒ":{"ha":572,"x_min":0,"x_max":0,"o":"m 115 472 b 268 572 129 472 247 558 l 268 413 b 288 393 268 400 275 393 b 307 413 300 393 307 400 l 307 579 b 457 481 329 564 440 481 b 476 500 469 481 476 488 b 468 517 476 507 474 513 l 326 611 l 468 707 b 476 724 474 711 476 717 b 457 743 476 736 469 743 b 307 644 440 743 329 660 l 307 811 b 288 831 307 824 300 831 b 268 811 275 831 268 824 l 268 651 b 115 751 247 665 129 751 b 96 732 103 751 96 744 b 104 715 96 725 99 719 l 258 611 l 104 508 b 96 492 99 504 96 499 b 115 472 96 479 103 472 z "},"ˆ":{"ha":396,"x_min":0,"x_max":0,"o":"m 281 649 b 300 668 290 649 300 658 b 215 803 300 683 226 783 b 197 811 211 808 204 811 b 181 803 190 811 185 808 b 96 668 169 783 96 683 b 115 649 96 658 104 649 b 132 658 122 649 128 651 l 197 758 l 264 658 b 281 649 268 651 274 649 z "},"ˇ":{"ha":396,"x_min":0,"x_max":0,"o":"m 201 688 b 219 696 208 688 215 690 b 304 831 231 714 304 814 b 285 850 304 842 294 850 b 268 842 278 850 272 847 l 201 742 l 136 842 b 119 850 132 847 126 850 b 100 831 107 850 100 843 b 185 696 100 814 174 714 b 201 688 189 690 194 688 z "},"˘":{"ha":572,"x_min":0,"x_max":0,"o":"m 115 472 b 268 572 129 472 247 558 l 268 413 b 288 393 268 400 275 393 b 307 413 300 393 307 400 l 307 579 b 457 481 329 564 440 481 b 476 500 469 481 476 488 b 468 517 476 507 474 513 l 326 611 l 468 707 b 476 724 474 711 476 717 b 457 743 476 736 469 743 b 307 644 440 743 329 660 l 307 811 b 288 831 307 824 300 831 b 268 811 275 831 268 824 l 268 651 b 115 751 247 665 129 751 b 96 732 103 751 96 744 b 104 715 96 725 99 719 l 258 611 l 104 508 b 96 492 99 504 96 499 b 115 472 96 479 103 472 z "},"˙":{"ha":572,"x_min":0,"x_max":0,"o":"m 115 472 b 268 572 129 472 247 558 l 268 413 b 288 393 268 400 275 393 b 307 413 300 393 307 400 l 307 579 b 457 481 329 564 440 481 b 476 500 469 481 476 488 b 468 517 476 507 474 513 l 326 611 l 468 707 b 476 724 474 711 476 717 b 457 743 476 736 469 743 b 307 644 440 743 329 660 l 307 811 b 288 831 307 824 300 831 b 268 811 275 831 268 824 l 268 651 b 115 751 247 665 129 751 b 96 732 103 751 96 744 b 104 715 96 725 99 719 l 258 611 l 104 508 b 96 492 99 504 96 499 b 115 472 96 479 103 472 z "},"˚":{"ha":449,"x_min":0,"x_max":0,"o":"m 225 849 b 96 719 153 849 96 790 b 225 590 96 649 153 590 b 353 719 297 590 353 649 b 225 849 353 790 297 849 z m 225 619 b 125 719 169 619 125 665 b 225 819 125 774 169 819 b 324 719 279 819 324 774 b 225 619 324 665 279 619 z "},"˛":{"ha":572,"x_min":0,"x_max":0,"o":"m 115 472 b 268 572 129 472 247 558 l 268 413 b 288 393 268 400 275 393 b 307 413 300 393 307 400 l 307 579 b 457 481 329 564 440 481 b 476 500 469 481 476 488 b 468 517 476 507 474 513 l 326 611 l 468 707 b 476 724 474 711 476 717 b 457 743 476 736 469 743 b 307 644 440 743 329 660 l 307 811 b 288 831 307 824 300 831 b 268 811 275 831 268 824 l 268 651 b 115 751 247 665 129 751 b 96 732 103 751 96 744 b 104 715 96 725 99 719 l 258 611 l 104 508 b 96 492 99 504 96 499 b 115 472 96 479 103 472 z "},"˜":{"ha":456,"x_min":0,"x_max":0,"o":"m 96 674 b 115 654 96 664 104 654 b 169 751 151 654 122 751 b 289 650 207 751 222 650 b 360 771 350 650 360 725 b 340 790 360 782 350 790 b 292 689 303 790 335 689 b 171 790 249 689 238 790 b 96 674 111 790 96 719 z "},"˝":{"ha":572,"x_min":0,"x_max":0,"o":"m 115 472 b 268 572 129 472 247 558 l 268 413 b 288 393 268 400 275 393 b 307 413 300 393 307 400 l 307 579 b 457 481 329 564 440 481 b 476 500 469 481 476 488 b 468 517 476 507 474 513 l 326 611 l 468 707 b 476 724 474 711 476 717 b 457 743 476 736 469 743 b 307 644 440 743 329 660 l 307 811 b 288 831 307 824 300 831 b 268 811 275 831 268 824 l 268 651 b 115 751 247 665 129 751 b 96 732 103 751 96 744 b 104 715 96 725 99 719 l 258 611 l 104 508 b 96 492 99 504 96 499 b 115 472 96 479 103 472 z "},"Δ":{"ha":572,"x_min":0,"x_max":0,"o":"m 115 472 b 268 572 129 472 247 558 l 268 413 b 288 393 268 400 275 393 b 307 413 300 393 307 400 l 307 579 b 457 481 329 564 440 481 b 476 500 469 481 476 488 b 468 517 476 507 474 513 l 326 611 l 468 707 b 476 724 474 711 476 717 b 457 743 476 736 469 743 b 307 644 440 743 329 660 l 307 811 b 288 831 307 824 300 831 b 268 811 275 831 268 824 l 268 651 b 115 751 247 665 129 751 b 96 732 103 751 96 744 b 104 715 96 725 99 719 l 258 611 l 104 508 b 96 492 99 504 96 499 b 115 472 96 479 103 472 z "},"Ω":{"ha":572,"x_min":0,"x_max":0,"o":"m 115 472 b 268 572 129 472 247 558 l 268 413 b 288 393 268 400 275 393 b 307 413 300 393 307 400 l 307 579 b 457 481 329 564 440 481 b 476 500 469 481 476 488 b 468 517 476 507 474 513 l 326 611 l 468 707 b 476 724 474 711 476 717 b 457 743 476 736 469 743 b 307 644 440 743 329 660 l 307 811 b 288 831 307 824 300 831 b 268 811 275 831 268 824 l 268 651 b 115 751 247 665 129 751 b 96 732 103 751 96 744 b 104 715 96 725 99 719 l 258 611 l 104 508 b 96 492 99 504 96 499 b 115 472 96 479 103 472 z "},"π":{"ha":572,"x_min":0,"x_max":0,"o":"m 115 472 b 268 572 129 472 247 558 l 268 413 b 288 393 268 400 275 393 b 307 413 300 393 307 400 l 307 579 b 457 481 329 564 440 481 b 476 500 469 481 476 488 b 468 517 476 507 474 513 l 326 611 l 468 707 b 476 724 474 711 476 717 b 457 743 476 736 469 743 b 307 644 440 743 329 660 l 307 811 b 288 831 307 824 300 831 b 268 811 275 831 268 824 l 268 651 b 115 751 247 665 129 751 b 96 732 103 751 96 744 b 104 715 96 725 99 719 l 258 611 l 104 508 b 96 492 99 504 96 499 b 115 472 96 479 103 472 z "},"–":{"ha":668,"x_min":0,"x_max":0,"o":"m 115 469 b 96 450 103 469 96 463 b 115 431 96 438 103 431 l 553 431 b 572 450 563 431 572 439 b 553 469 572 461 563 469 z "},"—":{"ha":828,"x_min":0,"x_max":0,"o":"m 115 469 b 96 450 103 469 96 463 b 115 431 96 438 103 431 l 713 431 b 732 450 725 431 732 438 b 713 469 732 463 725 469 z "},"‘":{"ha":269,"x_min":0,"x_max":0,"o":"m 103 700 b 135 668 104 682 118 668 b 167 700 153 668 167 682 b 144 729 167 715 160 725 b 181 822 147 747 164 793 b 161 842 181 835 174 842 b 103 708 129 842 103 738 z "},"’":{"ha":269,"x_min":0,"x_max":0,"o":"m 181 810 b 149 842 179 828 165 842 b 117 810 132 842 117 828 b 139 781 117 794 124 785 b 103 688 132 760 121 719 b 122 668 103 675 110 668 b 181 801 154 668 181 772 z "},"‚":{"ha":269,"x_min":0,"x_max":0,"o":"m 174 28 b 142 60 172 44 158 60 b 110 28 125 60 110 44 b 132 -3 110 13 117 1 b 96 -94 125 -24 115 -56 b 115 -114 96 -107 103 -114 b 174 19 147 -114 174 -10 z "},"“":{"ha":393,"x_min":0,"x_max":0,"o":"m 103 700 b 135 668 104 682 118 668 b 167 700 153 668 167 682 b 144 729 167 715 160 725 b 181 822 147 747 164 793 b 161 842 181 835 174 842 b 103 708 129 842 103 738 z m 219 692 b 251 660 221 674 235 660 b 283 692 268 660 283 674 b 261 721 283 707 276 717 b 297 814 264 739 281 785 b 278 833 297 826 290 833 b 219 700 246 833 219 729 z "},"”":{"ha":393,"x_min":0,"x_max":0,"o":"m 297 801 b 265 833 296 819 282 833 b 233 801 247 833 233 819 b 256 772 233 786 240 776 b 219 679 249 751 238 711 b 239 660 219 667 226 660 b 297 793 271 660 297 764 z m 181 810 b 149 842 179 828 165 842 b 117 810 132 842 117 828 b 139 781 117 794 124 785 b 103 688 132 760 121 719 b 122 668 103 675 110 668 b 181 801 154 668 181 772 z "},"„":{"ha":369,"x_min":0,"x_max":0,"o":"m 174 28 b 142 60 172 44 158 60 b 110 28 125 60 110 44 b 132 -3 110 13 117 1 b 96 -94 125 -24 115 -56 b 115 -114 96 -107 103 -114 b 174 19 147 -114 174 -10 z m 278 24 b 246 56 276 42 263 56 b 214 24 229 56 214 42 b 236 -6 214 8 221 -1 b 200 -99 229 -26 218 -67 b 219 -118 200 -111 207 -118 b 278 15 251 -118 278 -14 z "},"†":{"ha":592,"x_min":0,"x_max":0,"o":"m 315 600 l 315 829 b 296 849 315 839 307 849 b 276 829 285 849 276 839 l 276 600 l 115 600 b 96 581 103 600 96 593 b 115 561 96 568 103 561 l 276 561 l 276 -260 b 296 -279 276 -269 285 -279 b 315 -260 307 -279 315 -269 l 315 561 l 476 561 b 496 581 489 561 496 568 b 476 600 496 593 489 600 z "},"‡":{"ha":539,"x_min":0,"x_max":0,"o":"m 69 -29 b 89 -49 69 -42 76 -49 l 250 -49 l 250 -260 b 269 -279 250 -269 258 -279 b 289 -260 279 -279 289 -269 l 289 -49 l 450 -49 b 469 -29 460 -49 469 -40 b 450 -10 469 -19 460 -10 l 289 -10 l 289 561 l 450 561 b 469 581 460 561 469 569 b 450 600 469 592 460 600 l 289 600 l 289 829 b 269 849 289 839 279 849 b 250 829 258 849 250 839 l 250 600 l 89 600 b 69 581 76 600 69 593 b 89 561 69 568 76 561 l 250 561 l 250 -10 l 89 -10 b 69 -29 78 -10 69 -19 z "},"•":{"ha":494,"x_min":0,"x_max":0,"o":"m 247 617 b 96 451 158 617 96 536 b 247 285 96 365 158 285 b 399 451 338 285 399 365 b 247 617 399 536 338 617 z "},"…":{"ha":731,"x_min":0,"x_max":0,"o":"m 128 57 b 96 26 110 57 96 43 b 128 -6 96 8 110 -6 b 160 26 144 -6 160 8 b 128 57 160 43 144 57 z m 597 58 b 565 26 581 58 565 43 b 597 -6 565 10 581 -6 b 629 26 615 -6 629 10 b 597 58 629 43 615 58 z m 365 58 b 333 26 349 58 333 43 b 365 -6 333 10 349 -6 b 397 26 382 -6 397 10 b 365 58 397 43 382 58 z "},"‰":{"ha":1424,"x_min":0,"x_max":0,"o":"m 278 376 b 458 617 397 376 458 513 b 278 857 458 721 397 857 b 96 617 156 857 96 721 b 278 376 96 513 156 376 z m 278 818 b 419 617 375 818 419 699 b 278 415 419 535 375 415 b 135 617 179 415 135 535 b 278 818 135 699 179 818 z m 557 200 b 738 -40 557 96 618 -40 b 919 200 860 -40 919 96 b 738 439 919 303 860 439 b 557 200 618 439 557 303 z m 738 401 b 881 200 833 401 881 281 b 738 -1 881 118 833 -1 b 594 200 640 -1 594 118 b 738 401 594 281 640 401 z m 318 -17 b 336 -6 328 -17 333 -12 b 724 815 365 60 724 801 b 706 835 724 828 718 835 b 688 824 696 835 690 831 b 299 3 658 758 299 17 b 318 -17 299 -8 308 -17 z m 972 199 b 1154 -42 972 94 1036 -42 b 1336 199 1272 -42 1336 94 b 1154 439 1336 303 1272 439 b 972 199 1036 439 972 303 z m 1154 400 b 1297 199 1250 400 1297 281 b 1154 -3 1297 117 1250 -3 b 1011 199 1057 -3 1011 117 b 1154 400 1011 281 1057 400 z "},"‹":{"ha":329,"x_min":0,"x_max":0,"o":"m 135 221 b 233 436 146 247 233 419 b 214 456 233 446 224 456 b 196 443 206 456 200 451 l 97 232 b 94 226 96 231 94 228 b 96 221 94 225 96 224 b 94 214 96 218 94 217 b 97 210 94 213 96 211 l 196 -1 b 214 -12 199 -8 204 -12 b 233 7 224 -12 233 -4 b 135 221 233 22 146 194 z "},"›":{"ha":329,"x_min":0,"x_max":0,"o":"m 194 221 b 96 7 183 194 96 22 b 115 -12 96 -6 103 -12 b 133 -1 122 -12 129 -8 l 232 210 b 233 221 233 213 233 217 b 232 232 233 225 233 229 l 133 443 b 115 456 129 451 122 456 b 96 436 104 456 96 446 b 194 221 96 419 183 247 z "},"⁄":{"ha":811,"x_min":0,"x_max":0,"o":"m 208 -17 b 226 -6 218 -17 224 -12 b 614 815 256 60 614 801 b 596 835 614 828 608 835 b 578 824 586 835 581 831 b 189 3 549 758 189 17 b 208 -17 189 -8 199 -17 z "},"€":{"ha":651,"x_min":0,"x_max":0,"o":"m 413 819 b 563 747 497 819 546 747 b 582 767 575 747 582 754 b 576 779 582 772 581 776 b 413 858 538 825 474 858 b 135 519 243 858 157 660 b 104 521 128 519 117 521 b 69 500 86 521 69 517 b 103 479 69 482 86 479 b 129 481 113 479 122 481 b 126 425 128 460 126 443 b 103 425 121 425 113 425 b 69 406 86 425 69 422 b 101 385 69 388 86 385 b 126 386 111 385 121 386 b 413 -24 133 226 219 -24 b 576 54 474 -24 538 8 b 582 68 581 58 582 63 b 563 88 582 78 574 88 b 413 15 546 88 497 15 b 165 386 244 15 172 250 l 425 386 b 444 406 435 386 444 394 b 425 425 444 415 435 425 l 165 425 b 168 481 165 443 167 460 l 425 481 b 444 500 435 481 444 489 b 425 519 444 511 435 519 l 174 519 b 413 819 192 639 269 819 z "},"™":{"ha":800,"x_min":0,"x_max":0,"o":"m 115 832 b 96 813 103 832 96 825 b 115 794 96 800 103 794 l 203 794 l 203 413 b 222 393 203 403 211 393 b 242 413 232 393 242 403 l 242 794 l 328 794 b 347 813 340 794 347 800 b 328 832 347 825 340 832 z m 685 838 b 667 825 676 838 671 833 l 538 474 l 410 822 b 389 838 406 832 399 838 b 369 818 379 838 369 829 l 369 413 b 389 393 369 401 379 393 b 408 413 401 393 408 400 l 408 711 l 519 410 b 538 396 522 400 528 396 b 557 414 553 396 553 404 l 665 711 l 665 413 b 685 393 665 401 675 393 b 704 413 697 393 704 400 l 704 818 b 685 838 704 831 697 838 z "},"∂":{"ha":572,"x_min":0,"x_max":0,"o":"m 115 472 b 268 572 129 472 247 558 l 268 413 b 288 393 268 400 275 393 b 307 413 300 393 307 400 l 307 579 b 457 481 329 564 440 481 b 476 500 469 481 476 488 b 468 517 476 507 474 513 l 326 611 l 468 707 b 476 724 474 711 476 717 b 457 743 476 736 469 743 b 307 644 440 743 329 660 l 307 811 b 288 831 307 824 300 831 b 268 811 275 831 268 824 l 268 651 b 115 751 247 665 129 751 b 96 732 103 751 96 744 b 104 715 96 725 99 719 l 258 611 l 104 508 b 96 492 99 504 96 499 b 115 472 96 479 103 472 z "},"∏":{"ha":572,"x_min":0,"x_max":0,"o":"m 115 472 b 268 572 129 472 247 558 l 268 413 b 288 393 268 400 275 393 b 307 413 300 393 307 400 l 307 579 b 457 481 329 564 440 481 b 476 500 469 481 476 488 b 468 517 476 507 474 513 l 326 611 l 468 707 b 476 724 474 711 476 717 b 457 743 476 736 469 743 b 307 644 440 743 329 660 l 307 811 b 288 831 307 824 300 831 b 268 811 275 831 268 824 l 268 651 b 115 751 247 665 129 751 b 96 732 103 751 96 744 b 104 715 96 725 99 719 l 258 611 l 104 508 b 96 492 99 504 96 499 b 115 472 96 479 103 472 z "},"∑":{"ha":572,"x_min":0,"x_max":0,"o":"m 115 472 b 268 572 129 472 247 558 l 268 413 b 288 393 268 400 275 393 b 307 413 300 393 307 400 l 307 579 b 457 481 329 564 440 481 b 476 500 469 481 476 488 b 468 517 476 507 474 513 l 326 611 l 468 707 b 476 724 474 711 476 717 b 457 743 476 736 469 743 b 307 644 440 743 329 660 l 307 811 b 288 831 307 824 300 831 b 268 811 275 831 268 824 l 268 651 b 115 751 247 665 129 751 b 96 732 103 751 96 744 b 104 715 96 725 99 719 l 258 611 l 104 508 b 96 492 99 504 96 499 b 115 472 96 479 103 472 z "},"−":{"ha":504,"x_min":0,"x_max":0,"o":"m 390 431 b 408 450 400 431 408 440 b 390 469 408 463 403 469 l 115 469 b 96 450 103 469 96 463 b 115 431 96 440 104 431 z "},"√":{"ha":572,"x_min":0,"x_max":0,"o":"m 115 472 b 268 572 129 472 247 558 l 268 413 b 288 393 268 400 275 393 b 307 413 300 393 307 400 l 307 579 b 457 481 329 564 440 481 b 476 500 469 481 476 488 b 468 517 476 507 474 513 l 326 611 l 468 707 b 476 724 474 711 476 717 b 457 743 476 736 469 743 b 307 644 440 743 329 660 l 307 811 b 288 831 307 824 300 831 b 268 811 275 831 268 824 l 268 651 b 115 751 247 665 129 751 b 96 732 103 751 96 744 b 104 715 96 725 99 719 l 258 611 l 104 508 b 96 492 99 504 96 499 b 115 472 96 479 103 472 z "},"∞":{"ha":572,"x_min":0,"x_max":0,"o":"m 115 472 b 268 572 129 472 247 558 l 268 413 b 288 393 268 400 275 393 b 307 413 300 393 307 400 l 307 579 b 457 481 329 564 440 481 b 476 500 469 481 476 488 b 468 517 476 507 474 513 l 326 611 l 468 707 b 476 724 474 711 476 717 b 457 743 476 736 469 743 b 307 644 440 743 329 660 l 307 811 b 288 831 307 824 300 831 b 268 811 275 831 268 824 l 268 651 b 115 751 247 665 129 751 b 96 732 103 751 96 744 b 104 715 96 725 99 719 l 258 611 l 104 508 b 96 492 99 504 96 499 b 115 472 96 479 103 472 z "},"∫":{"ha":572,"x_min":0,"x_max":0,"o":"m 115 472 b 268 572 129 472 247 558 l 268 413 b 288 393 268 400 275 393 b 307 413 300 393 307 400 l 307 579 b 457 481 329 564 440 481 b 476 500 469 481 476 488 b 468 517 476 507 474 513 l 326 611 l 468 707 b 476 724 474 711 476 717 b 457 743 476 736 469 743 b 307 644 440 743 329 660 l 307 811 b 288 831 307 824 300 831 b 268 811 275 831 268 824 l 268 651 b 115 751 247 665 129 751 b 96 732 103 751 96 744 b 104 715 96 725 99 719 l 258 611 l 104 508 b 96 492 99 504 96 499 b 115 472 96 479 103 472 z "},"≈":{"ha":572,"x_min":0,"x_max":0,"o":"m 115 472 b 268 572 129 472 247 558 l 268 413 b 288 393 268 400 275 393 b 307 413 300 393 307 400 l 307 579 b 457 481 329 564 440 481 b 476 500 469 481 476 488 b 468 517 476 507 474 513 l 326 611 l 468 707 b 476 724 474 711 476 717 b 457 743 476 736 469 743 b 307 644 440 743 329 660 l 307 811 b 288 831 307 824 300 831 b 268 811 275 831 268 824 l 268 651 b 115 751 247 665 129 751 b 96 732 103 751 96 744 b 104 715 96 725 99 719 l 258 611 l 104 508 b 96 492 99 504 96 499 b 115 472 96 479 103 472 z "},"≠":{"ha":572,"x_min":0,"x_max":0,"o":"m 115 472 b 268 572 129 472 247 558 l 268 413 b 288 393 268 400 275 393 b 307 413 300 393 307 400 l 307 579 b 457 481 329 564 440 481 b 476 500 469 481 476 488 b 468 517 476 507 474 513 l 326 611 l 468 707 b 476 724 474 711 476 717 b 457 743 476 736 469 743 b 307 644 440 743 329 660 l 307 811 b 288 831 307 824 300 831 b 268 811 275 831 268 824 l 268 651 b 115 751 247 665 129 751 b 96 732 103 751 96 744 b 104 715 96 725 99 719 l 258 611 l 104 508 b 96 492 99 504 96 499 b 115 472 96 479 103 472 z "},"≤":{"ha":572,"x_min":0,"x_max":0,"o":"m 115 472 b 268 572 129 472 247 558 l 268 413 b 288 393 268 400 275 393 b 307 413 300 393 307 400 l 307 579 b 457 481 329 564 440 481 b 476 500 469 481 476 488 b 468 517 476 507 474 513 l 326 611 l 468 707 b 476 724 474 711 476 717 b 457 743 476 736 469 743 b 307 644 440 743 329 660 l 307 811 b 288 831 307 824 300 831 b 268 811 275 831 268 824 l 268 651 b 115 751 247 665 129 751 b 96 732 103 751 96 744 b 104 715 96 725 99 719 l 258 611 l 104 508 b 96 492 99 504 96 499 b 115 472 96 479 103 472 z "},"≥":{"ha":572,"x_min":0,"x_max":0,"o":"m 115 472 b 268 572 129 472 247 558 l 268 413 b 288 393 268 400 275 393 b 307 413 300 393 307 400 l 307 579 b 457 481 329 564 440 481 b 476 500 469 481 476 488 b 468 517 476 507 474 513 l 326 611 l 468 707 b 476 724 474 711 476 717 b 457 743 476 736 469 743 b 307 644 440 743 329 660 l 307 811 b 288 831 307 824 300 831 b 268 811 275 831 268 824 l 268 651 b 115 751 247 665 129 751 b 96 732 103 751 96 744 b 104 715 96 725 99 719 l 258 611 l 104 508 b 96 492 99 504 96 499 b 115 472 96 479 103 472 z "},"◊":{"ha":572,"x_min":0,"x_max":0,"o":"m 115 472 b 268 572 129 472 247 558 l 268 413 b 288 393 268 400 275 393 b 307 413 300 393 307 400 l 307 579 b 457 481 329 564 440 481 b 476 500 469 481 476 488 b 468 517 476 507 474 513 l 326 611 l 468 707 b 476 724 474 711 476 717 b 457 743 476 736 469 743 b 307 644 440 743 329 660 l 307 811 b 288 831 307 824 300 831 b 268 811 275 831 268 824 l 268 651 b 115 751 247 665 129 751 b 96 732 103 751 96 744 b 104 715 96 725 99 719 l 258 611 l 104 508 b 96 492 99 504 96 499 b 115 472 96 479 103 472 z "},"ﬂ":{"ha":694,"x_min":0,"x_max":0,"o":"m 349 456 b 329 475 349 467 339 475 l 189 475 l 189 710 b 306 807 189 778 243 807 b 443 738 388 807 426 738 b 463 757 454 738 463 747 b 304 846 463 807 346 846 b 150 701 210 846 150 796 l 150 475 l 61 475 b 42 456 49 475 42 468 b 61 436 42 443 49 436 l 150 436 l 150 10 b 169 -10 150 0 158 -10 b 189 10 181 -10 189 0 l 189 436 l 329 436 b 349 456 339 436 349 444 z m 578 843 b 558 824 567 843 558 833 l 558 10 b 578 -10 558 0 567 -10 b 597 10 589 -10 597 0 l 597 824 b 578 843 597 833 589 843 z "},"ﬁ":{"ha":676,"x_min":0,"x_max":0,"o":"m 349 456 b 329 475 349 467 339 475 l 189 475 l 189 710 b 306 807 189 778 243 807 b 443 738 388 807 426 738 b 463 757 454 738 463 747 b 304 846 463 807 346 846 b 150 701 210 846 150 796 l 150 475 l 61 475 b 42 456 49 475 42 468 b 61 436 42 443 49 436 l 150 436 l 150 10 b 169 -10 150 0 158 -10 b 189 10 181 -10 189 0 l 189 436 l 329 436 b 349 456 339 436 349 444 z m 579 589 b 547 621 579 607 564 621 b 515 589 529 621 515 607 b 547 558 515 572 529 558 b 579 589 564 558 579 572 z m 547 453 b 528 433 536 453 528 443 l 528 11 b 547 -8 528 1 536 -8 b 567 11 557 -8 567 1 l 567 433 b 547 453 567 443 557 453 z "},"Å":{"ha":669,"x_min":0,"x_max":0,"o":"m 335 1038 b 206 908 263 1038 206 979 b 294 785 206 851 242 801 b 42 10 229 593 42 17 b 61 -10 42 0 50 -10 b 79 4 71 -10 76 -6 l 185 324 l 485 324 l 589 4 b 608 -10 592 -6 599 -10 b 628 10 618 -10 628 0 b 375 785 628 15 440 593 b 463 908 426 803 463 851 b 335 1038 463 979 407 1038 z m 472 363 l 197 363 l 333 779 l 335 779 z m 354 847 b 335 860 351 856 344 860 b 315 847 325 860 318 856 b 303 813 313 842 308 829 b 235 908 263 826 235 864 b 335 1008 235 963 279 1008 b 433 908 389 1008 433 963 b 365 813 433 865 404 826 z "}}}
